<svg width="114" height="120" viewBox="0 0 114 120" fill="none" xmlns="http://www.w3.org/2000/svg">
<g clip-path="url(#clip0_6188_277)">
<g opacity="0.9">
<path d="M45.74 40.8109C51.6726 37.3857 53.7055 29.8003 50.2807 23.8683C46.8559 17.9363 39.2702 15.9042 33.3376 19.3294C27.405 22.7546 25.3721 30.3401 28.7969 36.272C32.2217 42.204 39.8074 44.2361 45.74 40.8109Z" stroke="url(#paint0_linear_6188_277)" stroke-width="0.6" stroke-miterlimit="10"/>
<path d="M47.1284 43.216C53.426 39.58 55.5842 31.528 51.9488 25.2313C48.3134 18.9346 40.2611 16.7777 33.9634 20.4136C27.6658 24.0496 25.5076 32.1016 29.143 38.3982C32.7784 44.6949 40.8307 46.8519 47.1284 43.216Z" stroke="url(#paint1_linear_6188_277)" stroke-width="0.6" stroke-miterlimit="10"/>
<path d="M48.5691 45.7111C55.2842 41.8341 57.5856 33.2485 53.7094 26.5346C49.8331 19.8208 41.2471 17.521 34.5319 21.398C27.8168 25.275 25.5154 33.8606 29.3916 40.5745C33.2679 47.2883 41.8539 49.5881 48.5691 45.7111Z" stroke="url(#paint2_linear_6188_277)" stroke-width="0.6" stroke-miterlimit="10"/>
<path d="M50.0791 48.2764C57.2512 44.1205 59.6971 34.9389 55.5422 27.7685C51.3874 20.5981 42.2051 18.1544 35.033 22.3102C27.861 26.466 25.415 35.6477 29.5699 42.818C33.7248 49.9884 42.907 52.4322 50.0791 48.2764Z" stroke="url(#paint3_linear_6188_277)" stroke-width="0.6" stroke-miterlimit="10"/>
<path d="M51.5834 50.9308C59.2604 46.4985 61.8917 36.6837 57.4607 29.0089C53.0296 21.334 43.2141 18.7054 35.5371 23.1377C27.8601 27.57 25.2288 37.3848 29.6599 45.0596C34.091 52.7345 43.9065 55.3631 51.5834 50.9308Z" stroke="url(#paint4_linear_6188_277)" stroke-width="0.6" stroke-miterlimit="10"/>
<path d="M53.1404 53.6281C61.3442 48.8916 64.1552 38.4018 59.419 30.1984C54.6827 21.995 44.1928 19.1845 35.989 23.921C27.7852 28.6574 24.9742 39.1472 29.7105 47.3506C34.4467 55.554 44.9367 58.3645 53.1404 53.6281Z" stroke="url(#paint5_linear_6188_277)" stroke-width="0.6" stroke-miterlimit="10"/>
<path d="M54.7248 56.3733C63.4817 51.3175 66.4824 40.1209 61.4271 31.3649C56.3718 22.609 45.1749 19.6093 36.4181 24.6651C27.6613 29.7208 24.6606 40.9175 29.7159 49.6734C34.7711 58.4294 45.968 61.429 54.7248 56.3733Z" stroke="url(#paint6_linear_6188_277)" stroke-width="0.6" stroke-miterlimit="10"/>
<path d="M56.3293 59.1495C65.6588 53.7631 68.856 41.8346 63.4704 32.5064C58.0847 23.1782 46.1557 19.9827 36.8262 25.3691C27.4967 30.7555 24.2995 42.6841 29.6852 52.0123C35.0708 61.3405 46.9998 64.5359 56.3293 59.1495Z" stroke="url(#paint7_linear_6188_277)" stroke-width="0.6" stroke-miterlimit="10"/>
<path d="M57.9492 61.9564C67.8667 56.2305 71.2646 43.5487 65.5385 33.6308C59.8124 23.7129 47.1307 20.3147 37.2132 26.0406C27.2956 31.7664 23.8978 44.4482 29.6239 54.3661C35.35 64.284 48.0317 67.6823 57.9492 61.9564Z" stroke="url(#paint8_linear_6188_277)" stroke-width="0.6" stroke-miterlimit="10"/>
<path d="M59.5832 64.788C70.104 58.7138 73.7088 45.2609 67.6347 34.7402C61.5606 24.2195 48.1077 20.6149 37.5868 26.6892C27.0659 32.7634 23.4612 46.2162 29.5353 56.7369C35.6094 67.2576 49.0623 70.8622 59.5832 64.788Z" stroke="url(#paint9_linear_6188_277)" stroke-width="0.6" stroke-miterlimit="10"/>
<path d="M61.2305 67.6399C72.3656 61.211 76.1811 46.9731 69.7526 35.8387C63.3241 24.7043 49.0861 20.8897 37.9509 27.3185C26.8158 33.7474 23.0004 47.9852 29.4288 59.1197C35.8573 70.2541 50.0954 74.0687 61.2305 67.6399Z" stroke="url(#paint10_linear_6188_277)" stroke-width="0.6" stroke-miterlimit="10"/>
<path d="M62.8892 70.514C74.6494 63.7242 78.6794 48.6873 71.8902 36.9283C65.1011 25.1692 50.0639 21.1408 38.3036 27.9306C26.5434 34.7204 22.5134 49.7572 29.3025 61.5163C36.0916 73.2754 51.1289 77.3038 62.8892 70.514Z" stroke="url(#paint11_linear_6188_277)" stroke-width="0.6" stroke-miterlimit="10"/>
<path d="M77.3353 53.9649C75.6778 68.1777 62.8087 78.3548 48.5983 76.6937C34.3841 75.0349 24.2075 62.1707 25.8712 47.9595C27.5286 33.7467 40.3978 23.5695 54.6081 25.2307C68.8224 26.8895 78.999 39.7537 77.3353 53.9649Z" stroke="url(#paint12_linear_6188_277)" stroke-width="0.6" stroke-miterlimit="10"/>
<path d="M79.5896 56.4701C77.5065 71.3716 63.7371 81.7627 48.8364 79.6828C33.9358 77.603 23.5412 63.8311 25.6244 48.9296C27.7075 34.0281 41.4769 23.637 56.3776 25.7169C71.2805 27.8007 81.6728 41.5686 79.5896 56.4701Z" stroke="url(#paint13_linear_6188_277)" stroke-width="0.6" stroke-miterlimit="10"/>
<path d="M81.8459 58.9799C79.3371 74.5701 64.6657 85.1813 49.0742 82.6726C33.4849 80.1677 22.873 65.4985 25.3795 49.9043C27.8882 34.3142 42.5596 23.7029 58.1512 26.2116C73.7428 28.7204 84.3524 43.3857 81.8459 58.9799Z" stroke="url(#paint14_linear_6188_277)" stroke-width="0.6" stroke-miterlimit="10"/>
<path d="M84.101 61.4855C81.1689 77.7683 65.595 88.5896 49.3131 85.662C33.0312 82.7345 22.2076 67.1593 25.1358 50.8788C28.0679 34.596 43.6418 23.7747 59.9237 26.7022C76.2056 29.6297 87.0292 45.205 84.101 61.4855Z" stroke="url(#paint15_linear_6188_277)" stroke-width="0.6" stroke-miterlimit="10"/>
<path d="M86.3574 63.995C83.0036 80.9642 66.5237 92.008 49.5532 88.6555C32.5826 85.303 21.5394 68.8264 24.8972 51.8549C28.2511 34.8857 44.7309 23.842 61.7014 27.1944C78.672 30.5469 89.7152 47.0236 86.3574 63.995Z" stroke="url(#paint16_linear_6188_277)" stroke-width="0.6" stroke-miterlimit="10"/>
<path d="M88.6059 66.5027C84.8287 84.1645 67.4463 95.4183 49.7832 91.6431C32.12 87.8679 20.8674 70.4893 24.6446 52.8275C28.4218 35.1657 45.8042 23.9119 63.4673 27.6871C81.1305 31.4623 92.3831 48.8409 88.6059 66.5027Z" stroke="url(#paint17_linear_6188_277)" stroke-width="0.6" stroke-miterlimit="10"/>
<path d="M90.863 69.0121C86.6602 87.3626 68.3758 98.8365 50.024 94.6364C31.6722 90.4362 20.2039 72.1539 24.4045 53.7994C28.6074 35.449 46.8877 23.9773 65.2435 28.1752C83.5953 32.3753 95.0676 50.6554 90.8647 69.0059L90.863 69.0121Z" stroke="url(#paint18_linear_6188_277)" stroke-width="0.6" stroke-miterlimit="10"/>
<path d="M93.1175 71.5174C88.4913 90.5605 69.3067 102.248 50.2662 97.6232C31.2218 93.0004 19.5339 73.8167 24.1601 54.7736C28.7863 35.7305 47.9709 24.0426 67.0114 28.6677C86.0519 33.2928 97.7398 52.4766 93.1175 71.5174Z" stroke="url(#paint19_linear_6188_277)" stroke-width="0.6" stroke-miterlimit="10"/>
<path d="M95.3726 74.0271C90.3247 93.7566 70.2358 105.661 50.5028 100.613C30.7697 95.5652 18.8661 75.4777 23.918 55.7459C28.9659 36.0165 49.0548 24.1123 68.7878 29.1601C88.5209 34.2079 100.424 54.2954 95.3726 74.0271Z" stroke="url(#paint20_linear_6188_277)" stroke-width="0.6" stroke-miterlimit="10"/>
<path d="M97.6232 76.5351C92.1519 96.9572 71.1589 109.078 50.7372 103.605C30.3155 98.132 18.1985 77.1448 23.6698 56.7227C29.1411 36.3006 50.1342 24.1803 70.5559 29.6531C90.9776 35.1258 103.095 56.113 97.6232 76.5351Z" stroke="url(#paint21_linear_6188_277)" stroke-width="0.6" stroke-miterlimit="10"/>
</g>
</g>
<defs>
<linearGradient id="paint0_linear_6188_277" x1="22.7954" y1="25.416" x2="50.6045" y2="16.3431" gradientUnits="userSpaceOnUse">
<stop stop-color="#8258C8"/>
<stop offset="0.315" stop-color="#6766C8"/>
<stop offset="1" stop-color="#2C84C8"/>
</linearGradient>
<linearGradient id="paint1_linear_6188_277" x1="22.7725" y1="26.8747" x2="52.2929" y2="17.2438" gradientUnits="userSpaceOnUse">
<stop stop-color="#8258C8"/>
<stop offset="0.315" stop-color="#6766C8"/>
<stop offset="1" stop-color="#2C84C8"/>
</linearGradient>
<linearGradient id="paint2_linear_6188_277" x1="22.599" y1="28.2875" x2="54.0765" y2="18.0184" gradientUnits="userSpaceOnUse">
<stop stop-color="#8258C8"/>
<stop offset="0.315" stop-color="#6766C8"/>
<stop offset="1" stop-color="#2C84C8"/>
</linearGradient>
<linearGradient id="paint3_linear_6188_277" x1="22.2883" y1="29.6951" x2="55.9208" y2="18.6647" gradientUnits="userSpaceOnUse">
<stop stop-color="#8258C8"/>
<stop offset="0.315" stop-color="#6766C8"/>
<stop offset="1" stop-color="#2C84C8"/>
</linearGradient>
<linearGradient id="paint4_linear_6188_277" x1="21.8951" y1="31.0139" x2="57.8811" y2="19.2746" gradientUnits="userSpaceOnUse">
<stop stop-color="#8258C8"/>
<stop offset="0.315" stop-color="#6766C8"/>
<stop offset="1" stop-color="#2C84C8"/>
</linearGradient>
<linearGradient id="paint5_linear_6188_277" x1="21.4109" y1="32.3377" x2="59.8661" y2="19.7909" gradientUnits="userSpaceOnUse">
<stop stop-color="#8258C8"/>
<stop offset="0.315" stop-color="#6766C8"/>
<stop offset="1" stop-color="#2C84C8"/>
</linearGradient>
<linearGradient id="paint6_linear_6188_277" x1="20.8572" y1="33.6492" x2="61.9049" y2="20.257" gradientUnits="userSpaceOnUse">
<stop stop-color="#8258C8"/>
<stop offset="0.315" stop-color="#6766C8"/>
<stop offset="1" stop-color="#2C84C8"/>
</linearGradient>
<linearGradient id="paint7_linear_6188_277" x1="20.2476" y1="34.9408" x2="63.9799" y2="20.6732" gradientUnits="userSpaceOnUse">
<stop stop-color="#8258C8"/>
<stop offset="0.315" stop-color="#6766C8"/>
<stop offset="1" stop-color="#2C84C8"/>
</linearGradient>
<linearGradient id="paint8_linear_6188_277" x1="19.5896" y1="36.2155" x2="66.0781" y2="21.0468" gradientUnits="userSpaceOnUse">
<stop stop-color="#8258C8"/>
<stop offset="0.315" stop-color="#6766C8"/>
<stop offset="1" stop-color="#2C84C8"/>
</linearGradient>
<linearGradient id="paint9_linear_6188_277" x1="18.8912" y1="37.4831" x2="68.2078" y2="21.3922" gradientUnits="userSpaceOnUse">
<stop stop-color="#8258C8"/>
<stop offset="0.315" stop-color="#6766C8"/>
<stop offset="1" stop-color="#2C84C8"/>
</linearGradient>
<linearGradient id="paint10_linear_6188_277" x1="18.1638" y1="38.7426" x2="70.3597" y2="21.7128" gradientUnits="userSpaceOnUse">
<stop stop-color="#8258C8"/>
<stop offset="0.315" stop-color="#6766C8"/>
<stop offset="1" stop-color="#2C84C8"/>
</linearGradient>
<linearGradient id="paint11_linear_6188_277" x1="17.4056" y1="39.9961" x2="72.532" y2="22.0107" gradientUnits="userSpaceOnUse">
<stop stop-color="#8258C8"/>
<stop offset="0.315" stop-color="#6766C8"/>
<stop offset="1" stop-color="#2C84C8"/>
</linearGradient>
<linearGradient id="paint12_linear_6188_277" x1="16.6261" y1="41.2396" x2="74.7197" y2="22.2863" gradientUnits="userSpaceOnUse">
<stop stop-color="#8258C8"/>
<stop offset="0.315" stop-color="#6766C8"/>
<stop offset="1" stop-color="#2C84C8"/>
</linearGradient>
<linearGradient id="paint13_linear_6188_277" x1="15.8273" y1="42.4753" x2="76.9136" y2="22.5449" gradientUnits="userSpaceOnUse">
<stop stop-color="#8258C8"/>
<stop offset="0.315" stop-color="#6766C8"/>
<stop offset="1" stop-color="#2C84C8"/>
</linearGradient>
<linearGradient id="paint14_linear_6188_277" x1="15.0111" y1="43.7108" x2="79.123" y2="22.7931" gradientUnits="userSpaceOnUse">
<stop stop-color="#8258C8"/>
<stop offset="0.315" stop-color="#6766C8"/>
<stop offset="1" stop-color="#2C84C8"/>
</linearGradient>
<linearGradient id="paint15_linear_6188_277" x1="14.1814" y1="44.9413" x2="81.3426" y2="23.0292" gradientUnits="userSpaceOnUse">
<stop stop-color="#8258C8"/>
<stop offset="0.315" stop-color="#6766C8"/>
<stop offset="1" stop-color="#2C84C8"/>
</linearGradient>
<linearGradient id="paint16_linear_6188_277" x1="13.3402" y1="46.1717" x2="83.5764" y2="23.2577" gradientUnits="userSpaceOnUse">
<stop stop-color="#8258C8"/>
<stop offset="0.315" stop-color="#6766C8"/>
<stop offset="1" stop-color="#2C84C8"/>
</linearGradient>
<linearGradient id="paint17_linear_6188_277" x1="12.4776" y1="47.3943" x2="85.8035" y2="23.4719" gradientUnits="userSpaceOnUse">
<stop stop-color="#8258C8"/>
<stop offset="0.315" stop-color="#6766C8"/>
<stop offset="1" stop-color="#2C84C8"/>
</linearGradient>
<linearGradient id="paint18_linear_6188_277" x1="11.6152" y1="48.6138" x2="88.0501" y2="23.677" gradientUnits="userSpaceOnUse">
<stop stop-color="#8258C8"/>
<stop offset="0.315" stop-color="#6766C8"/>
<stop offset="1" stop-color="#2C84C8"/>
</linearGradient>
<linearGradient id="paint19_linear_6188_277" x1="10.7411" y1="49.8304" x2="90.2893" y2="23.8758" gradientUnits="userSpaceOnUse">
<stop stop-color="#8258C8"/>
<stop offset="0.315" stop-color="#6766C8"/>
<stop offset="1" stop-color="#2C84C8"/>
</linearGradient>
<linearGradient id="paint20_linear_6188_277" x1="9.86124" y1="51.0479" x2="92.5473" y2="24.0709" gradientUnits="userSpaceOnUse">
<stop stop-color="#8258C8"/>
<stop offset="0.315" stop-color="#6766C8"/>
<stop offset="1" stop-color="#2C84C8"/>
</linearGradient>
<linearGradient id="paint21_linear_6188_277" x1="8.96974" y1="52.2624" x2="94.7973" y2="24.2593" gradientUnits="userSpaceOnUse">
<stop stop-color="#8258C8"/>
<stop offset="0.315" stop-color="#6766C8"/>
<stop offset="1" stop-color="#2C84C8"/>
</linearGradient>
<clipPath id="clip0_6188_277">
<rect width="76.8399" height="93.1684" fill="white" transform="translate(0 38.4199) rotate(-30)"/>
</clipPath>
</defs>
</svg>
