<svg width="26" height="26" viewBox="0 0 26 26" fill="none" xmlns="http://www.w3.org/2000/svg">
<path d="M15.5638 23.3655L16.5589 23.465V23.465L15.5638 23.3655ZM15.261 24.6433L14.4954 24L14.4954 24L15.261 24.6433ZM16.1508 21.1254L16.7099 21.9544V21.9544L16.1508 21.1254ZM16.5191 20.9728L16.7099 21.9544H16.7099L16.5191 20.9728ZM18.5175 22.1413L17.8842 22.9152V22.9152L18.5175 22.1413ZM19.6339 22.83L19.7208 21.8337L19.6339 22.83ZM19.9064 22.8164L20.0921 23.799V23.799L19.9064 22.8164ZM20.9487 22.02L20.2416 21.3129L20.2416 21.3129L20.9487 22.02ZM22.0214 20.9473L22.7285 21.6544L22.7285 21.6544L22.0214 20.9473ZM22.8177 19.9052L23.8003 20.091L23.8003 20.091L22.8177 19.9052ZM22.8313 19.6324L21.8351 19.7195V19.7195L22.8313 19.6324ZM22.1427 18.5163L22.9166 17.883V17.883L22.1427 18.5163ZM20.9744 16.5183L19.9928 16.3277V16.3277L20.9744 16.5183ZM21.1271 16.1497L21.9561 16.709L21.9561 16.709L21.1271 16.1497ZM23.3663 15.563L23.2668 14.5679L23.3663 15.563ZM24.643 15.2605L24 14.4946L24 14.4946L24.643 15.2605ZM24.826 15.0582L24 14.4946L24 14.4946L24.826 15.0582ZM24.8259 10.9408L25.6518 10.377L25.6518 10.377L24.8259 10.9408ZM24.6432 10.7389L24 11.5046V11.5046L24.6432 10.7389ZM23.3661 10.4362L23.2666 11.4313H23.2666L23.3661 10.4362ZM21.1259 9.84907L20.2967 10.408L20.2967 10.408L21.1259 9.84907ZM20.9736 9.48126L19.992 9.67238L19.992 9.67237L20.9736 9.48126ZM22.1423 7.48222L21.3683 6.84898L21.3999 6.81038L21.4352 6.77511L22.1423 7.48222ZM22.1423 7.48221L22.9163 8.11544L22.8847 8.15405L22.8494 8.18932L22.1423 7.48221ZM22.8312 6.36546L23.8274 6.45219V6.4522L22.8312 6.36546ZM22.8176 6.09328L23.8002 5.90784L22.8176 6.09328ZM22.021 5.0506L21.3139 5.75771V5.7577L22.021 5.0506ZM20.9486 3.97819L21.6557 3.27109V3.27109L20.9486 3.97819ZM19.9063 3.18182L20.0919 2.1992H20.0919L19.9063 3.18182ZM19.6337 3.16823L19.7207 4.16445L19.7207 4.16445L19.6337 3.16823ZM18.5173 3.85693L19.1506 4.63089L18.5173 3.85693ZM16.5189 5.02541L16.7098 4.04379H16.7098L16.5189 5.02541ZM16.1506 4.87286L15.5915 5.70193L15.5915 5.70192L16.1506 4.87286ZM15.5637 2.63348L14.5687 2.73299V2.73298L15.5637 2.63348ZM15.2613 1.35702L14.4954 2L14.4954 1.99999L15.2613 1.35702ZM15.059 1.17394L15.6226 0.347885L15.6226 0.347887L15.059 1.17394ZM10.9418 1.17392L11.5054 2L11.5054 2L10.9418 1.17392ZM10.7395 1.35705L11.5054 2H11.5054L10.7395 1.35705ZM10.437 2.63341L9.44201 2.53391L10.437 2.63341ZM9.85021 4.87268L10.4094 5.70173L10.4094 5.70173L9.85021 4.87268ZM9.48187 5.02526L9.29104 4.04363H9.29104L9.48187 5.02526ZM7.48284 3.85626L8.11608 3.0823H8.11608L7.48284 3.85626ZM6.36515 3.16687L6.27872 4.16312L6.2787 4.16312L6.36515 3.16687ZM6.09358 3.18041L6.27873 4.16312L6.27871 4.16312L6.09358 3.18041ZM5.05033 3.9773L5.75744 4.6844L5.75743 4.6844L5.05033 3.9773ZM3.97873 5.04889L4.68584 5.756H4.68584L3.97873 5.04889ZM3.18171 6.09238L4.16445 6.27739L4.16445 6.27739L3.18171 6.09238ZM3.16818 6.36369L2.17191 6.44999H2.17191L3.16818 6.36369ZM3.85752 7.48144L4.63148 6.84821H4.63148L3.85752 7.48144ZM5.02677 9.48155L6.00827 9.67301L6.00827 9.67302L5.02677 9.48155ZM4.87468 9.84874L4.04527 9.2901L4.87468 9.84874ZM2.63395 10.4362L2.73345 11.4313H2.73345L2.63395 10.4362ZM1.35671 10.739L0.713424 9.97335L0.713426 9.97335L1.35671 10.739ZM1.17417 10.9407L0.34833 10.3768L0.348331 10.3768L1.17417 10.9407ZM1.17403 15.0583L2 14.4946H2L1.17403 15.0583ZM1.3569 15.2604L2 14.4946L2 14.4946L1.3569 15.2604ZM2.63365 15.563L2.53415 16.558H2.53415L2.63365 15.563ZM4.87356 16.1501L5.70277 15.5912L5.70277 15.5912L4.87356 16.1501ZM5.02593 16.5179L6.00749 16.3268L6.00749 16.3268L5.02593 16.5179ZM3.85709 18.5171L4.63105 19.1503H4.63105L3.85709 18.5171ZM3.16807 19.6342L4.16431 19.7208V19.7208L3.16807 19.6342ZM3.18163 19.9061L4.16431 19.7208V19.7208L3.18163 19.9061ZM3.97831 20.949L4.68542 20.2419L4.68542 20.2419L3.97831 20.949ZM6.09343 22.8178L5.90828 23.8005L5.90828 23.8005L6.09343 22.8178ZM6.36502 22.8313L6.27857 21.8351L6.27858 21.8351L6.36502 22.8313ZM7.48238 22.1422L6.84914 21.3682L6.84914 21.3682L7.48238 22.1422ZM9.48238 20.9731L9.67389 19.9916H9.67389L9.48238 20.9731ZM9.84946 21.1251L10.4081 20.2957L10.4081 20.2957L9.84946 21.1251ZM10.437 23.366L9.44195 23.4655V23.4655L10.437 23.366ZM10.7398 24.6433L9.97418 25.2866L9.97418 25.2866L10.7398 24.6433ZM10.9414 24.8258L10.3775 25.6516L10.3775 25.6516L10.9414 24.8258ZM15.0594 24.8258L14.4954 24L14.4954 24L15.0594 24.8258ZM16.5589 23.465C16.5263 23.7908 16.4954 24.1127 16.44 24.3795C16.3806 24.6656 16.2745 24.9917 16.0265 25.2867L14.4954 24C14.4462 24.0585 14.4568 24.0928 14.4818 23.9727C14.5108 23.8332 14.532 23.6345 14.5688 23.266L16.5589 23.465ZM16.7099 21.9544C16.8425 21.865 16.8029 21.7737 16.7364 22.0691C16.6714 22.3576 16.6275 22.7787 16.5589 23.465L14.5688 23.266C14.632 22.634 14.687 22.0662 14.7852 21.6298C14.8819 21.2004 15.0699 20.6482 15.5916 20.2963L16.7099 21.9544ZM16.7099 21.9544V21.9544L15.5916 20.2963C15.8142 20.1462 16.0647 20.0424 16.3283 19.9912L16.7099 21.9544ZM17.8842 22.9152C17.3506 22.4786 17.0219 22.212 16.7722 22.0541C16.5165 21.8924 16.5531 21.9849 16.7099 21.9544L16.3283 19.9912C16.9459 19.8711 17.4692 20.1285 17.8411 20.3637C18.2191 20.6028 18.6593 20.9652 19.1507 21.3673L17.8842 22.9152ZM19.5469 23.8262C19.1634 23.7927 18.8582 23.6373 18.6141 23.4771C18.3865 23.3278 18.1373 23.1222 17.8842 22.9152L19.1507 21.3673C19.437 21.6015 19.5922 21.7269 19.7112 21.8049C19.8136 21.8721 19.7968 21.8404 19.7208 21.8337L19.5469 23.8262ZM20.0921 23.799C19.9124 23.8329 19.729 23.8421 19.5469 23.8262L19.7208 21.8337L20.0921 23.799ZM21.6559 22.7271C21.4247 22.9583 21.1971 23.1877 20.9856 23.3589C20.7586 23.5425 20.4703 23.7275 20.0921 23.799L19.7208 21.8337C19.6458 21.8479 19.6323 21.8811 19.7275 21.8041C19.8381 21.7146 19.9801 21.5744 20.2416 21.3129L21.6559 22.7271ZM22.7285 21.6544L21.6559 22.7271L20.2416 21.3129L21.3143 20.2402L22.7285 21.6544ZM23.8003 20.091C23.7288 20.4692 23.5437 20.7574 23.3602 20.9843C23.189 21.1958 22.9597 21.4233 22.7285 21.6544L21.3143 20.2402C21.5758 19.9787 21.7159 19.8368 21.8054 19.7262C21.8824 19.631 21.8492 19.6445 21.8351 19.7195L23.8003 20.091ZM23.8275 19.5453C23.8434 19.7276 23.8342 19.9112 23.8003 20.091L21.8351 19.7195L21.8351 19.7195L23.8275 19.5453ZM22.9166 17.883C23.1236 18.136 23.3292 18.3852 23.4784 18.6127C23.6385 18.8567 23.794 19.1619 23.8275 19.5453L21.8351 19.7195C21.8417 19.7955 21.8734 19.8122 21.8062 19.7098C21.7282 19.5909 21.6029 19.4357 21.3687 19.1495L22.9166 17.883ZM21.9561 16.709C21.9865 16.5521 21.894 16.5156 22.0557 16.7713C22.2136 17.0209 22.4801 17.3495 22.9166 17.883L21.3687 19.1495C20.9668 18.6582 20.6044 18.2182 20.3654 17.8402C20.1302 17.4683 19.8728 16.9452 19.9928 16.3277L21.9561 16.709ZM21.9561 16.709L21.9561 16.709L19.9928 16.3277C20.044 16.0639 20.1479 15.8131 20.2982 15.5903L21.9561 16.709ZM23.4658 16.558C22.7798 16.6266 22.3589 16.6705 22.0706 16.7354C21.7754 16.8019 21.8667 16.8415 21.9561 16.709L20.2982 15.5903C20.65 15.0688 21.202 14.8809 21.6313 14.7843C22.0676 14.686 22.6351 14.6311 23.2668 14.5679L23.4658 16.558ZM25.286 16.0263C24.9912 16.2739 24.6653 16.3799 24.3794 16.4393C24.1129 16.4946 23.7912 16.5255 23.4658 16.558L23.2668 14.5679C23.635 14.5311 23.8334 14.51 23.9727 14.481C24.0928 14.4561 24.0585 14.4455 24 14.4946L25.286 16.0263ZM25.6521 15.6219C25.5491 15.7728 25.4259 15.9089 25.286 16.0263L24 14.4946L24 14.4946L25.6521 15.6219ZM26 13.7579C26 14.0849 26.0013 14.408 25.9727 14.6787C25.9421 14.9691 25.8691 15.3038 25.6521 15.6219L24 14.4946C23.957 14.5577 23.9709 14.5907 23.9838 14.4689C23.9987 14.3274 24 14.1279 24 13.7579H26ZM26 12.2416V13.7579H24V12.2416H26ZM25.6518 10.377C25.869 10.6951 25.9421 11.0299 25.9727 11.3204C26.0013 11.5912 26 11.9145 26 12.2416H24C24 11.8715 23.9987 11.6719 23.9838 11.5303C23.9709 11.4085 23.9569 11.4415 24 11.5046L25.6518 10.377ZM25.2864 9.9732C25.426 10.0905 25.549 10.2263 25.6518 10.377L24 11.5046L24 11.5046L25.2864 9.9732ZM23.4656 9.44118C23.7911 9.47373 24.1129 9.50461 24.3795 9.56C24.6655 9.61941 24.9915 9.72546 25.2864 9.9732L24 11.5046C24.0585 11.5537 24.0928 11.5431 23.9727 11.5182C23.8334 11.4892 23.6349 11.4681 23.2666 11.4313L23.4656 9.44118ZM21.9552 9.29014C21.8658 9.15756 21.7744 9.19714 22.0698 9.26366C22.3581 9.32862 22.7792 9.37254 23.4656 9.44118L23.2666 11.4313C22.6345 11.368 22.0667 11.3131 21.6303 11.2148C21.2008 11.118 20.6486 10.93 20.2967 10.408L21.9552 9.29014ZM21.9552 9.29013L21.9552 9.29014L20.2967 10.408C20.1469 10.1857 20.0433 9.93553 19.992 9.67238L21.9552 9.29013ZM22.9163 8.11546C22.4795 8.6493 22.2128 8.97804 22.0549 9.22785C21.8931 9.48367 21.9857 9.44705 21.9552 9.29014L19.992 9.67237C19.8717 9.05454 20.1292 8.53111 20.3645 8.15899C20.6036 7.78086 20.9661 7.34055 21.3683 6.84898L22.9163 8.11546ZM22.8494 8.18932L22.8494 8.18933L21.4352 6.77511L21.4352 6.7751L22.8494 8.18932ZM23.8274 6.4522C23.794 6.83582 23.6385 7.14121 23.4784 7.38538C23.329 7.61302 23.1234 7.86234 22.9163 8.11544L21.3684 6.84897C21.6026 6.56262 21.728 6.40733 21.8061 6.28836C21.8733 6.1859 21.8415 6.20265 21.8349 6.27871L23.8274 6.4522ZM23.8002 5.90784C23.8341 6.0872 23.8432 6.27035 23.8274 6.45219L21.8349 6.27872L21.8349 6.27871L23.8002 5.90784ZM22.7281 4.34349C22.9594 4.57474 23.1888 4.80235 23.3601 5.01401C23.5437 5.24103 23.7288 5.52944 23.8002 5.90784L21.8349 6.27871C21.8491 6.35374 21.8823 6.36725 21.8052 6.27199C21.7157 6.16137 21.5755 6.01933 21.3139 5.75771L22.7281 4.34349ZM21.6557 3.27109L22.7281 4.34349L21.3139 5.7577L20.2415 4.6853L21.6557 3.27109ZM20.0919 2.1992C20.4702 2.27066 20.7585 2.4557 20.9854 2.63933C21.197 2.81053 21.4245 3.03991 21.6557 3.27109L20.2415 4.6853C19.98 4.42376 19.838 4.28359 19.7274 4.19412C19.6322 4.11706 19.6456 4.15028 19.7207 4.16445L20.0919 2.1992ZM19.5468 2.17202C19.7289 2.15613 19.9123 2.16528 20.0919 2.1992L19.7207 4.16445H19.7207L19.5468 2.17202ZM17.8841 3.08298C18.1371 2.87595 18.3864 2.67035 18.6139 2.52105C18.858 2.36091 19.1633 2.20548 19.5468 2.17202L19.7207 4.16445C19.7967 4.15781 19.8134 4.1261 19.711 4.1933C19.5921 4.27133 19.4368 4.39667 19.1506 4.63089L17.8841 3.08298ZM16.7098 4.04379C16.5529 4.01329 16.5163 4.10581 16.772 3.94409C17.0218 3.78617 17.3504 3.51962 17.8841 3.08298L19.1506 4.63089C18.6591 5.03296 18.219 5.39544 17.841 5.63448C17.469 5.86971 16.9457 6.12712 16.328 6.00702L16.7098 4.04379ZM16.7098 4.04379L16.7098 4.04379L16.328 6.00702C16.0645 5.95579 15.814 5.85202 15.5915 5.70193L16.7098 4.04379ZM16.5588 2.53398C16.6274 3.22011 16.6713 3.64099 16.7362 3.92925C16.8027 4.22445 16.8423 4.13315 16.7098 4.04379L15.5915 5.70192C15.0698 5.35008 14.8818 4.79806 14.7851 4.36868C14.6868 3.93236 14.6319 3.36479 14.5687 2.73299L16.5588 2.53398ZM16.0272 0.714031C16.2747 1.00887 16.3807 1.33467 16.44 1.62051C16.4954 1.88701 16.5262 2.20865 16.5588 2.53398L14.5687 2.73298C14.5319 2.36492 14.5108 2.16651 14.4818 2.02723C14.4569 1.90727 14.4463 1.94154 14.4954 2L16.0272 0.714031ZM15.6226 0.347887C15.7735 0.450872 15.9097 0.574064 16.0272 0.714039L14.4954 1.99999L14.4954 2L15.6226 0.347887ZM13.7588 0C14.0857 0 14.4088 -0.001297 14.6795 0.0272617C14.9698 0.0578938 15.3046 0.13092 15.6226 0.347885L14.4954 2C14.5585 2.04302 14.5915 2.02908 14.4697 2.01622C14.3282 2.0013 14.1287 2 13.7588 2V0ZM12.242 0H13.7588V2H12.242V0ZM10.3783 0.347839C10.6963 0.130903 11.031 0.0578861 11.3213 0.0272598C11.5919 -0.001297 11.915 0 12.242 0V2C11.8721 2 11.6726 2.0013 11.5311 2.01622C11.4093 2.02907 11.4423 2.04302 11.5054 2L10.3783 0.347839ZM9.97357 0.714096C10.0911 0.574089 10.2273 0.450855 10.3783 0.347837L11.5054 2L11.5054 2L9.97357 0.714096ZM9.44201 2.53391C9.47454 2.20861 9.5054 1.887 9.56075 1.62052C9.62011 1.3347 9.72607 1.00892 9.97357 0.714096L11.5054 2C11.5545 1.94154 11.5439 1.90728 11.519 2.02722C11.49 2.16649 11.4689 2.36489 11.4321 2.73292L9.44201 2.53391ZM9.29104 4.04363C9.15855 4.133 9.1981 4.22429 9.26458 3.9291C9.3295 3.64086 9.3734 3.22 9.44201 2.53391L11.4321 2.73292C11.3689 3.36469 11.314 3.93223 11.2157 4.36853C11.119 4.7979 10.931 5.34989 10.4094 5.70173L9.29104 4.04363ZM9.29104 4.04363H9.29104L10.4094 5.70173C10.1868 5.85186 9.93626 5.95564 9.6727 6.00688L9.29104 4.04363ZM8.11608 3.0823C8.64995 3.5191 8.97877 3.7858 9.22864 3.94382C9.48459 4.1057 9.44801 4.01312 9.29104 4.04363L9.6727 6.00688C9.05496 6.12697 8.53161 5.86941 8.15962 5.63416C7.78154 5.39504 7.34124 5.03246 6.8496 4.63021L8.11608 3.0823ZM6.45158 2.17061C6.83547 2.20391 7.1411 2.35949 7.3854 2.51975C7.61321 2.66918 7.86272 2.87501 8.11608 3.0823L6.8496 4.63021C6.56299 4.39571 6.40752 4.27019 6.28841 4.19205C6.18579 4.12474 6.20256 4.15652 6.27872 4.16312L6.45158 2.17061ZM5.90843 2.1977C6.08741 2.16398 6.27015 2.15487 6.45159 2.17061L6.2787 4.16312H6.27873L5.90843 2.1977ZM4.34322 3.27019C4.57459 3.03882 4.80232 2.80925 5.0141 2.63793C5.24124 2.45417 5.52983 2.26903 5.90845 2.1977L6.27871 4.16312C6.35378 4.14898 6.3673 4.11572 6.272 4.19282C6.16131 4.28236 6.0192 4.42264 5.75744 4.6844L4.34322 3.27019ZM3.27163 4.34178L4.34322 3.27019L5.75743 4.6844L4.68584 5.756L3.27163 4.34178ZM2.19897 5.90738C2.27027 5.52866 2.45544 5.24001 2.63923 5.01281C2.81059 4.80099 3.04021 4.5732 3.27163 4.34178L4.68584 5.756C4.42402 6.01782 4.28371 6.15997 4.19415 6.27067C4.11704 6.366 4.15031 6.35247 4.16445 6.27739L2.19897 5.90738ZM2.17191 6.44999C2.15621 6.26873 2.16531 6.08618 2.19897 5.90737L4.16445 6.27739L4.16445 6.27739L2.17191 6.44999ZM3.08357 8.11468C2.87628 7.86134 2.67045 7.61181 2.521 7.38397C2.36072 7.13961 2.20517 6.83394 2.17191 6.44999L4.16445 6.27739C4.15785 6.20125 4.12608 6.18448 4.19336 6.28705C4.27147 6.40615 4.39698 6.56159 4.63148 6.84821L3.08357 8.11468ZM4.04527 9.2901C4.01464 9.44709 4.10731 9.48375 3.94545 9.22775C3.7874 8.97779 3.52059 8.64882 3.08357 8.11468L4.63148 6.84821C5.03391 7.34007 5.3967 7.78062 5.6359 8.15893C5.87128 8.53121 6.12884 9.05492 6.00827 9.67301L4.04527 9.2901ZM4.04527 9.2901L4.04527 9.29009L6.00827 9.67302C5.95703 9.93569 5.85359 10.1854 5.70408 10.4074L4.04527 9.2901ZM2.53445 9.44118C3.22105 9.37252 3.64223 9.32858 3.93067 9.26359C4.22603 9.19705 4.1346 9.15746 4.04527 9.2901L5.70408 10.4074C5.3523 10.9297 4.79994 11.1179 4.37026 11.2147C3.93366 11.3131 3.3657 11.368 2.73345 11.4313L2.53445 9.44118ZM0.713426 9.97335C1.00837 9.72553 1.33436 9.61944 1.62039 9.56002C1.88706 9.50461 2.2089 9.47373 2.53445 9.44118L2.73345 11.4313C2.36515 11.4681 2.16661 11.4892 2.02724 11.5182C1.90722 11.5431 1.94152 11.5537 2 11.5046L0.713426 9.97335ZM0.348331 10.3768C0.451083 10.2263 0.573918 10.0906 0.713424 9.97335L2 11.5046L2 11.5046L0.348331 10.3768ZM0 12.2417C0 11.9145 -0.00129855 11.5912 0.0272976 11.3204C0.0579693 11.0298 0.131095 10.6949 0.34833 10.3768L2 11.5046C2.04307 11.4415 2.02911 11.4084 2.01624 11.5303C2.0013 11.6719 2 11.8716 2 12.2417H0ZM0 13.7578V12.2417H2V13.7578H0ZM0.348055 15.622C0.130987 15.304 0.0579228 14.9692 0.027276 14.6788C-0.00129747 14.408 0 14.0848 0 13.7578H2C2 14.1278 2.0013 14.3274 2.01623 14.4689C2.02909 14.5907 2.04304 14.5577 2 14.4946L0.348055 15.622ZM0.713801 16.0262C0.574013 15.9088 0.450955 15.7728 0.348055 15.622L2 14.4946L2 14.4946L0.713801 16.0262ZM2.53415 16.558C2.20874 16.5255 1.88703 16.4946 1.62046 16.4392C1.33455 16.3798 1.00868 16.2738 0.713799 16.0262L2 14.4946C1.94153 14.4455 1.90725 14.4561 2.02723 14.481C2.16654 14.51 2.365 14.5311 2.73315 14.5679L2.53415 16.558ZM4.04436 16.709C4.13371 16.8416 4.22506 16.802 3.9298 16.7355C3.64146 16.6706 3.22047 16.6266 2.53415 16.558L2.73315 14.5679C3.36513 14.6311 3.93286 14.6861 4.3693 14.7844C4.7988 14.8811 5.35096 15.0692 5.70277 15.5912L4.04436 16.709ZM4.04436 16.709L4.04436 16.709L5.70277 15.5912C5.85263 15.8135 5.95626 16.0636 6.00749 16.3268L4.04436 16.709ZM3.08313 17.8839C3.51995 17.35 3.78662 17.0212 3.9446 16.7713C4.10639 16.5155 4.0138 16.5521 4.04436 16.709L6.00749 16.3268C6.12779 16.9447 5.87031 17.4681 5.63501 17.8402C5.3959 18.2184 5.03328 18.6587 4.63105 19.1503L3.08313 17.8839ZM2.17183 19.5475C2.20519 19.1638 2.36069 18.8584 2.52089 18.6141C2.67026 18.3864 2.87598 18.1371 3.08313 17.8839L4.63105 19.1503C4.39668 19.4368 4.27126 19.5921 4.19319 19.7111C4.12595 19.8136 4.15769 19.7969 4.16431 19.7208L2.17183 19.5475ZM2.19895 20.0914C2.16515 19.9122 2.15603 19.7292 2.17183 19.5475L4.16431 19.7208V19.7208L2.19895 20.0914ZM3.27121 21.6561C3.03991 21.4248 2.81042 21.1972 2.63914 20.9855C2.45543 20.7584 2.27033 20.4699 2.19895 20.0914L4.16431 19.7208C4.15016 19.6458 4.11691 19.6322 4.19399 19.7275C4.28351 19.8382 4.42374 19.9802 4.68542 20.2419L3.27121 21.6561ZM4.34309 22.728L3.27121 21.6561L4.68542 20.2419L5.75731 21.3138L4.34309 22.728ZM5.90828 23.8005C5.52967 23.7292 5.2411 23.544 5.01395 23.3603C4.80219 23.1889 4.57446 22.9594 4.34309 22.728L5.75731 21.3138C6.01906 21.5756 6.16118 21.7158 6.27185 21.8054C6.36716 21.8825 6.35364 21.8492 6.27857 21.8351L5.90828 23.8005ZM6.45147 23.8276C6.27001 23.8433 6.08726 23.8342 5.90828 23.8005L6.27857 21.8351L6.27857 21.8351L6.45147 23.8276ZM8.11561 22.9162C7.86237 23.1234 7.61293 23.3291 7.38516 23.4785C7.14086 23.6388 6.8353 23.7943 6.45147 23.8276L6.27858 21.8351C6.20247 21.8417 6.18571 21.8734 6.28822 21.8062C6.40726 21.7281 6.56263 21.6027 6.84914 21.3682L8.11561 22.9162ZM9.29086 21.9546C9.44783 21.9852 9.4845 21.8926 9.22856 22.0544C8.97863 22.2124 8.64971 22.4792 8.11561 22.9162L6.84914 21.3682C7.34095 20.9658 7.78147 20.6031 8.15978 20.3639C8.53208 20.1285 9.0558 19.871 9.67389 19.9916L9.29086 21.9546ZM9.29086 21.9546L9.29086 21.9546L9.67389 19.9916C9.93649 20.0428 10.1861 20.1463 10.4081 20.2957L9.29086 21.9546ZM9.44195 23.4655C9.37329 22.7789 9.32935 22.3576 9.26435 22.0692C9.1978 21.7738 9.15822 21.8653 9.29086 21.9546L10.4081 20.2957C10.9304 20.6475 11.1186 21.1999 11.2154 21.6296C11.3138 22.0662 11.3688 22.6342 11.432 23.2665L9.44195 23.4655ZM9.97418 25.2866C9.72634 24.9917 9.62024 24.6657 9.5608 24.3796C9.50539 24.1129 9.47451 23.7911 9.44195 23.4655L11.432 23.2665C11.4689 23.6348 11.49 23.8334 11.519 23.9728C11.5439 24.0928 11.5545 24.0585 11.5054 24L9.97418 25.2866ZM10.3775 25.6516C10.2271 25.5489 10.0914 25.4261 9.97418 25.2866L11.5054 24L11.5054 24L10.3775 25.6516ZM12.2425 26C11.9153 26 11.592 26.0013 11.3211 25.9727C11.0306 25.942 10.6956 25.8689 10.3775 25.6516L11.5054 24C11.4423 23.9569 11.4092 23.9709 11.5311 23.9838C11.6727 23.9987 11.8724 24 12.2425 24V26ZM13.7582 26H12.2425V24H13.7582V26ZM15.6234 25.6516C15.3052 25.8689 14.9702 25.942 14.6797 25.9727C14.4088 26.0013 14.0854 26 13.7582 26V24C14.1284 24 14.3281 23.9987 14.4697 23.9838C14.5916 23.9709 14.5585 23.9569 14.4954 24L15.6234 25.6516ZM16.0265 25.2867C15.9094 25.4261 15.7737 25.5489 15.6234 25.6516L14.4954 24L14.4954 24L16.0265 25.2867ZM16.8002 13.0008C16.8002 10.9021 15.0989 9.20078 13.0002 9.20078V7.20078C16.2034 7.20078 18.8002 9.79753 18.8002 13.0008H16.8002ZM13.0002 16.8008C15.0989 16.8008 16.8002 15.0995 16.8002 13.0008H18.8002C18.8002 16.204 16.2034 18.8008 13.0002 18.8008V16.8008ZM9.2002 13.0008C9.2002 15.0995 10.9015 16.8008 13.0002 16.8008V18.8008C9.79694 18.8008 7.2002 16.204 7.2002 13.0008H9.2002ZM13.0002 9.20078C10.9015 9.20078 9.2002 10.9021 9.2002 13.0008H7.2002C7.2002 9.79753 9.79694 7.20078 13.0002 7.20078V9.20078Z" fill="url(#paint0_linear_2439_819)"/>
<defs>
<linearGradient id="paint0_linear_2439_819" x1="1.22305" y1="25" x2="28.9117" y2="19.1502" gradientUnits="userSpaceOnUse">
<stop stop-color="#8258C8"/>
<stop offset="0.315" stop-color="#6766C8"/>
<stop offset="1" stop-color="#2C84C8"/>
</linearGradient>
</defs>
</svg>
