<svg width="36" height="36" viewBox="0 0 36 36" fill="none" xmlns="http://www.w3.org/2000/svg">
<path d="M25.8997 3.37665C25.9444 3.37456 25.9893 3.37603 26.0338 3.38105L31.8785 4.10394C32.3424 4.15786 32.6743 4.5784 32.619 5.04218L31.9049 10.8891C31.85 11.3561 31.4241 11.6881 30.9578 11.6274C30.4935 11.5692 30.1652 11.1443 30.2261 10.6804L30.6964 6.85492L18.8333 16.1296L18.8399 29.7526L21.5733 27.0258C22.0078 26.632 22.462 26.7364 22.7598 27.0258C23.0849 27.3545 23.0849 27.8836 22.7598 28.2123L18.5916 32.3806C18.2629 32.7056 17.7338 32.7056 17.4051 32.3806L13.2347 28.2123C12.9038 27.8826 12.9038 27.3468 13.2347 27.017C13.5647 26.6847 14.1022 26.6847 14.4322 27.017L17.1546 29.7394L17.1458 16.1537C13.2212 13.031 9.25929 9.94795 5.30037 6.85712L5.77058 10.6804C5.83148 11.1443 5.50319 11.5692 5.03889 11.6274C4.57586 11.6829 4.15564 11.3522 4.10066 10.8891L3.37776 5.04218C3.32233 4.57916 3.65298 4.15897 4.11604 4.10394L9.96296 3.38104C10.4268 3.32562 10.8473 3.65755 10.9012 4.12152C10.9569 4.58152 10.6312 5.00037 10.1717 5.05976L6.33967 5.52777C10.2227 8.55866 14.1154 11.5859 17.9764 14.6552L29.6549 5.52777L25.825 5.05976C25.3646 5.00146 25.0377 4.58227 25.0933 4.12152C25.1418 3.70841 25.4841 3.39223 25.8997 3.37665Z" fill="#111111"/>
</svg>
