<svg width="46" height="46" viewBox="0 0 46 46" fill="none" xmlns="http://www.w3.org/2000/svg">
<path d="M45.8926 14.3621C45.894 14.3597 45.8958 14.3578 45.8973 14.3555C45.9003 14.3507 45.9025 14.3458 45.9054 14.3409C45.9124 14.3291 45.9192 14.3172 45.9254 14.305C45.9296 14.2968 45.9335 14.2885 45.9373 14.2802C45.9427 14.2686 45.9477 14.2569 45.9525 14.245C45.9562 14.2356 45.9597 14.226 45.9629 14.2165C45.9666 14.2056 45.9702 14.1947 45.9734 14.1836C45.9765 14.1726 45.9793 14.1616 45.9818 14.1505C45.9842 14.1405 45.9863 14.1304 45.9882 14.1203C45.9905 14.1079 45.9923 14.0955 45.9939 14.0831C45.995 14.0738 45.9962 14.0645 45.9969 14.055C45.9981 14.0416 45.9986 14.0282 45.999 14.0148C45.9992 14.009 45.9999 14.0034 45.9999 13.9977C45.9999 13.9942 45.9995 13.9908 45.9994 13.9874C45.9992 13.9747 45.9984 13.962 45.9975 13.9493C45.9968 13.9391 45.9961 13.9288 45.9949 13.9186C45.9936 13.9082 45.9918 13.8978 45.9901 13.8875C45.9881 13.8756 45.9862 13.8636 45.9837 13.852C45.9818 13.8436 45.9794 13.8352 45.9772 13.8268C45.9738 13.8139 45.9705 13.8009 45.9664 13.7883C45.9639 13.7805 45.9608 13.773 45.958 13.7653C45.9534 13.7526 45.9489 13.74 45.9435 13.7277C45.9398 13.7191 45.9355 13.711 45.9313 13.7026C45.926 13.6918 45.921 13.6809 45.9151 13.6704C45.9095 13.6603 45.9033 13.6506 45.8972 13.6408C45.892 13.6325 45.887 13.624 45.8814 13.616C45.8741 13.6053 45.866 13.5949 45.8579 13.5846C45.8527 13.5778 45.8478 13.571 45.8423 13.5644C45.8339 13.5544 45.8249 13.545 45.8159 13.5354C45.8098 13.5289 45.8038 13.5223 45.7975 13.516C45.7891 13.5078 45.7802 13.5 45.7714 13.4922C45.7632 13.485 45.7551 13.4778 45.7467 13.4711C45.7389 13.4648 45.7308 13.4591 45.7228 13.4532C45.7123 13.4455 45.7018 13.438 45.6908 13.4309C45.688 13.4291 45.6855 13.4269 45.6826 13.4252L39.9213 9.82445C39.9174 9.82202 39.9133 9.82013 39.9094 9.81779C39.9014 9.81302 39.8935 9.80816 39.8853 9.80375C39.8803 9.80105 39.8752 9.79853 39.8702 9.79601C39.8621 9.79187 39.8539 9.78808 39.8456 9.7843C39.8391 9.78124 39.8326 9.77809 39.8258 9.77521C39.8211 9.77323 39.8165 9.77152 39.8118 9.76972C39.8008 9.7654 39.7898 9.76144 39.7787 9.75775C39.7747 9.7564 39.7709 9.7546 39.7668 9.75334C39.7655 9.75298 39.7643 9.75271 39.7631 9.75235C39.7591 9.75118 39.7552 9.75019 39.7512 9.74902C39.7383 9.74524 39.7255 9.74208 39.7125 9.73911C39.7075 9.73803 39.7027 9.7365 39.6977 9.73551C39.6945 9.73488 39.6912 9.73461 39.688 9.73398C39.6749 9.73155 39.6617 9.72957 39.6485 9.72786C39.639 9.72669 39.6296 9.72552 39.62 9.72471C39.6084 9.72372 39.5969 9.72318 39.5853 9.72282C39.5742 9.72246 39.5631 9.72219 39.5522 9.72237C39.5421 9.72255 39.5321 9.72309 39.522 9.72372C39.5181 9.72399 39.5141 9.72399 39.5101 9.72426C39.5075 9.72444 39.5049 9.72435 39.5023 9.72462C39.4968 9.72516 39.4914 9.72615 39.486 9.72678C39.4767 9.72786 39.4675 9.7293 39.4582 9.73074C39.4551 9.73119 39.4521 9.73155 39.4491 9.73209C39.445 9.73281 39.4408 9.73308 39.4368 9.73389C39.4317 9.73488 39.4269 9.73632 39.4219 9.7374C39.4126 9.73938 39.4035 9.74182 39.3942 9.74416C39.3827 9.74713 39.3712 9.75019 39.36 9.75379C39.3501 9.75694 39.3404 9.76045 39.3306 9.76405C39.3234 9.76666 39.3161 9.76891 39.3091 9.77179C39.3061 9.77296 39.3033 9.77458 39.3003 9.77584C39.2898 9.78025 39.2795 9.7852 39.2692 9.79016C39.2622 9.79358 39.255 9.79673 39.2481 9.80033C39.2474 9.80069 39.2466 9.80096 39.2458 9.80141L28.9326 15.3018L22.8023 7.80909C22.802 7.80873 22.8017 7.80846 22.8014 7.8081C22.7995 7.80576 22.7975 7.80351 22.7956 7.80117C22.7908 7.7955 22.7856 7.79037 22.7806 7.78488C22.7711 7.77426 22.7615 7.76354 22.7513 7.75355C22.7453 7.7477 22.7388 7.74239 22.7326 7.73681C22.7227 7.7279 22.7131 7.71889 22.7028 7.71052C22.6929 7.70269 22.6825 7.69558 22.6723 7.6882C22.6715 7.68766 22.6708 7.68703 22.67 7.68649C22.6632 7.68172 22.6568 7.6765 22.6498 7.6719C22.6395 7.66506 22.6284 7.65912 22.6176 7.65282C22.6094 7.64805 22.6014 7.64292 22.593 7.63851C22.5829 7.6332 22.5723 7.62879 22.5619 7.62401C22.5522 7.6196 22.5428 7.61474 22.533 7.61078C22.5236 7.607 22.5139 7.60403 22.5043 7.6007C22.4928 7.59665 22.4815 7.59242 22.4699 7.589C22.4684 7.58855 22.467 7.58792 22.4656 7.58756C22.4553 7.58459 22.445 7.58279 22.4348 7.58035C22.4255 7.57819 22.4163 7.57567 22.4069 7.57387C22.4029 7.57315 22.399 7.57225 22.3951 7.57153L2.23411 3.97102C2.22744 3.96985 2.22087 3.96949 2.21421 3.9685C2.20206 3.9667 2.19 3.96499 2.17784 3.96382C2.16668 3.96274 2.1557 3.9622 2.14463 3.96175C2.13409 3.9613 2.12356 3.96094 2.11303 3.96094C2.10097 3.96094 2.08899 3.96139 2.07702 3.96211C2.0673 3.96265 2.05749 3.96337 2.04777 3.96427C2.0357 3.96544 2.02373 3.96706 2.01185 3.96895C2.00195 3.97048 1.99213 3.97219 1.98232 3.97408C1.97098 3.97633 1.95982 3.97894 1.94865 3.98182C1.9383 3.98443 1.92795 3.98731 1.91769 3.99046C1.90733 3.99361 1.89725 3.99704 1.88708 4.00073C1.87637 4.0046 1.86584 4.00865 1.8553 4.01306C1.84558 4.01711 1.83613 4.02152 1.82659 4.02602C1.81632 4.03088 1.80615 4.03592 1.79607 4.04133C1.78626 4.04664 1.77672 4.05222 1.76726 4.05798C1.75817 4.06347 1.74908 4.06905 1.74017 4.07499C1.72973 4.08201 1.71964 4.0894 1.70965 4.09696C1.70443 4.10092 1.69885 4.10434 1.69372 4.10848C1.69129 4.11037 1.68931 4.11253 1.68688 4.11451C1.67679 4.12279 1.66716 4.13161 1.65753 4.14053C1.6506 4.14692 1.64349 4.15322 1.63683 4.15988C1.62818 4.16852 1.62017 4.1777 1.61198 4.1868C1.60523 4.19436 1.5983 4.20174 1.592 4.20948C1.58479 4.2183 1.57813 4.22767 1.57138 4.23694C1.56508 4.24549 1.5586 4.25395 1.55275 4.26268C1.54663 4.27196 1.54113 4.28159 1.53546 4.29122C1.52988 4.30058 1.52412 4.30976 1.51908 4.31931C1.51404 4.32885 1.50963 4.33884 1.50504 4.34865C1.50027 4.35882 1.49531 4.36891 1.49108 4.37926C1.48712 4.3888 1.48388 4.3987 1.48037 4.40851C1.47641 4.41968 1.47227 4.43084 1.46894 4.44218C1.46615 4.45154 1.4639 4.46127 1.46147 4.4709C1.45841 4.48314 1.45535 4.49529 1.45301 4.50763C1.45238 4.51078 1.45139 4.51384 1.45085 4.51699C1.44959 4.52383 1.44922 4.53058 1.44823 4.53742C1.44652 4.54931 1.44481 4.56119 1.44373 4.57316C1.44265 4.58432 1.44211 4.5954 1.44166 4.60647C1.44121 4.61709 1.44085 4.62771 1.44085 4.63833C1.44085 4.65022 1.44139 4.66201 1.44202 4.6738C1.44256 4.68379 1.44328 4.6937 1.44427 4.70369C1.44544 4.71557 1.44706 4.72727 1.44886 4.73898C1.4504 4.74906 1.4522 4.75914 1.45418 4.76913C1.45643 4.7803 1.45895 4.79128 1.46183 4.80226C1.46453 4.81279 1.46741 4.82323 1.47056 4.83368C1.47371 4.84385 1.47713 4.85393 1.48073 4.86392C1.4846 4.87464 1.48865 4.88535 1.49306 4.89588C1.49712 4.90551 1.50144 4.91506 1.50594 4.92451C1.5108 4.93477 1.51584 4.94494 1.52124 4.95502C1.52646 4.96484 1.53213 4.97429 1.5378 4.98383C1.5433 4.99301 1.54888 5.0021 1.55491 5.01102C1.56184 5.02137 1.56922 5.03136 1.57669 5.04126C1.58065 5.04657 1.58407 5.05215 1.58831 5.05738L5.89592 10.4419H0.675147C0.669025 10.4419 0.663174 10.4426 0.657143 10.4428C0.64472 10.4432 0.632297 10.4437 0.619875 10.4447C0.608982 10.4456 0.59818 10.4468 0.587468 10.4482C0.576935 10.4495 0.566403 10.4512 0.555961 10.453C0.544078 10.455 0.532376 10.4576 0.520763 10.4603C0.511401 10.4624 0.502129 10.4649 0.492857 10.4675C0.480885 10.4708 0.469182 10.4744 0.457479 10.4784C0.448387 10.4815 0.439386 10.4848 0.430384 10.4883C0.419311 10.4927 0.408419 10.4972 0.397706 10.502C0.388164 10.5064 0.378712 10.5109 0.36935 10.5157C0.359718 10.5207 0.350176 10.5257 0.340814 10.5311C0.330822 10.5368 0.32101 10.5428 0.311288 10.549C0.302916 10.5544 0.294724 10.5599 0.286622 10.5656C0.27672 10.5725 0.267088 10.5798 0.257546 10.5874C0.249804 10.5935 0.242333 10.5997 0.234951 10.6061C0.226039 10.6138 0.217217 10.6218 0.208665 10.6299C0.200834 10.6374 0.193362 10.6451 0.18589 10.6529C0.178509 10.6606 0.171307 10.6686 0.164286 10.6768C0.156094 10.6863 0.148262 10.6961 0.140611 10.7061C0.13692 10.7109 0.132959 10.7151 0.129358 10.72C0.127288 10.7228 0.125667 10.7258 0.123687 10.7287C0.115945 10.7397 0.108834 10.7509 0.101722 10.7623C0.0969511 10.77 0.092 10.7778 0.087589 10.7856C0.0813777 10.7967 0.0757065 10.808 0.0700352 10.8194C0.0657143 10.8282 0.0613033 10.8369 0.0573425 10.8457C0.0526614 10.8563 0.0486106 10.8672 0.0444697 10.8781C0.0406888 10.8881 0.036728 10.8981 0.0333973 10.9083C0.0301566 10.9183 0.027456 10.9285 0.0246654 10.9388C0.0215147 10.9501 0.018364 10.9615 0.0159335 10.9729C0.013863 10.9824 0.0124227 10.992 0.0107123 11.0015C0.00855186 11.0141 0.00639139 11.0266 0.00495108 11.0392C0.00387084 11.0483 0.00333072 11.0575 0.00270059 11.0667C0.00171037 11.08 0.000900196 11.0933 0.000720157 11.1065C0.000450098 11.11 0 11.1134 0 11.117C0 11.1232 0.000720157 11.129 0.000900196 11.135C0.00126027 11.1475 0.00171037 11.1599 0.00279061 11.1723C0.0036908 11.1832 0.00495108 11.1939 0.00630137 11.2047C0.00765166 11.2153 0.00927202 11.2259 0.0111624 11.2363C0.0132329 11.2481 0.0157534 11.2598 0.018454 11.2714C0.0207045 11.2809 0.023045 11.2902 0.0256556 11.2995C0.0289863 11.3114 0.0325871 11.323 0.0365479 11.3346C0.0396986 11.3439 0.0430294 11.353 0.0466301 11.3621C0.0508611 11.373 0.055362 11.3838 0.0601331 11.3944C0.064544 11.4041 0.0692251 11.4137 0.0739961 11.4233C0.0788571 11.4327 0.0838082 11.4421 0.0890294 11.4513C0.0947906 11.4615 0.101002 11.4715 0.107303 11.4814C0.112524 11.4895 0.117926 11.4976 0.123507 11.5056C0.130528 11.5156 0.13791 11.5254 0.145562 11.535C0.151593 11.5426 0.157714 11.55 0.164016 11.5573C0.171757 11.5663 0.179769 11.5752 0.188141 11.5838C0.195523 11.5915 0.203174 11.599 0.211006 11.6064C0.218838 11.6138 0.226669 11.6211 0.234951 11.6282C0.244493 11.6364 0.254305 11.6441 0.264207 11.6518C0.268978 11.6555 0.273209 11.6594 0.27816 11.663L15.7889 22.9435L12.9722 41.2523C12.9718 41.2544 12.9715 41.2566 12.9712 41.2588L12.9708 41.261C12.9704 41.2638 12.9704 41.2665 12.97 41.2693C12.9673 41.2885 12.9652 41.3076 12.9641 41.3267C12.9636 41.3343 12.9639 41.3417 12.9637 41.3491C12.9634 41.3634 12.9631 41.3778 12.9636 41.392C12.9641 41.4031 12.9653 41.414 12.9663 41.425C12.9673 41.4355 12.9679 41.4459 12.9694 41.4562C12.9712 41.4691 12.9738 41.4818 12.9763 41.4945C12.978 41.503 12.9794 41.5115 12.9815 41.5199C12.9845 41.5329 12.9884 41.5455 12.9922 41.5582C12.9946 41.5663 12.9968 41.5745 12.9996 41.5826C13.0037 41.5943 13.0084 41.6058 13.013 41.6173C13.0166 41.6262 13.0201 41.6352 13.0241 41.6439C13.0286 41.6538 13.0337 41.6633 13.0386 41.6728C13.0438 41.6829 13.0489 41.693 13.0545 41.7028C13.0591 41.7107 13.0643 41.7183 13.0691 41.726C13.076 41.7368 13.0828 41.7476 13.0904 41.7581C13.0951 41.7647 13.1003 41.771 13.1052 41.7774C13.1136 41.7882 13.122 41.7989 13.1311 41.8092C13.1365 41.8153 13.1423 41.8211 13.1479 41.8271C13.1571 41.8369 13.1662 41.8466 13.176 41.8558C13.1833 41.8626 13.1911 41.869 13.1988 41.8756C13.2074 41.883 13.216 41.8906 13.225 41.8976C13.2361 41.9063 13.2478 41.9141 13.2595 41.922C13.2659 41.9263 13.2719 41.9309 13.2784 41.935C13.2947 41.9452 13.3116 41.9546 13.3289 41.9635C13.3314 41.9648 13.3335 41.9662 13.3359 41.9675C13.3362 41.9676 13.3365 41.9677 13.3368 41.9678C13.3595 41.9792 13.383 41.9893 13.4072 41.9981C13.4133 42.0002 13.4194 42.0018 13.4254 42.0038C13.442 42.0092 13.4587 42.0145 13.4759 42.0187C13.4873 42.0215 13.4986 42.0235 13.51 42.0257C13.5184 42.0273 13.5266 42.0296 13.5353 42.0309C13.5381 42.0314 13.5409 42.0312 13.5438 42.0316C13.575 42.036 13.6063 42.0389 13.6374 42.0389C13.6378 42.0389 13.6381 42.0389 13.6384 42.0389H13.6388C13.6667 42.0389 13.6941 42.0365 13.7214 42.0331C13.7268 42.0324 13.7321 42.0317 13.7375 42.0309C13.7932 42.0227 13.8471 42.0074 13.898 41.9861C13.903 41.984 13.9078 41.9821 13.9127 41.9799C13.9374 41.9689 13.9614 41.9567 13.9845 41.9428C13.9888 41.9403 13.9927 41.9374 13.9969 41.9348C14.0163 41.9226 14.035 41.9093 14.0531 41.8953C14.0585 41.8911 14.0639 41.8871 14.0692 41.8828C14.0892 41.8661 14.1083 41.8482 14.1264 41.8292C14.1309 41.8244 14.1352 41.8195 14.1396 41.8146C14.1578 41.7945 14.1751 41.7734 14.1909 41.7511C14.1913 41.7503 14.1919 41.7497 14.1924 41.7491C14.2094 41.7246 14.2244 41.6987 14.2382 41.6718C14.2393 41.6697 14.2408 41.6678 14.2419 41.6656L19.1733 31.8028L35.5119 24.6991C35.5163 24.6972 35.5203 24.6948 35.5246 24.6928C35.5377 24.6868 35.5505 24.6805 35.5632 24.6736C35.5644 24.673 35.5657 24.6725 35.5669 24.6718C35.569 24.6708 35.5711 24.6699 35.5731 24.6688C35.5778 24.6662 35.5821 24.663 35.5868 24.6603C35.597 24.6543 35.6071 24.648 35.6169 24.6414C35.6234 24.6371 35.6299 24.633 35.6362 24.6285C35.6387 24.6268 35.6409 24.6248 35.6433 24.623C35.6507 24.6176 35.6579 24.612 35.665 24.6062C35.6667 24.6049 35.6687 24.604 35.6704 24.6025C35.6721 24.6011 35.6737 24.5995 35.6754 24.598C35.6817 24.5928 35.6877 24.5875 35.6937 24.582C35.6997 24.5766 35.7055 24.571 35.7112 24.5655C35.7116 24.5652 35.7119 24.5649 35.7123 24.5645C35.7148 24.5621 35.7175 24.56 35.72 24.5575C35.7219 24.5556 35.7236 24.5536 35.7255 24.5517C35.73 24.5471 35.7344 24.5424 35.7388 24.5376C35.7444 24.5315 35.7497 24.5252 35.7551 24.5189C35.7604 24.5129 35.7658 24.5069 35.7707 24.5007C35.7736 24.4971 35.7763 24.4935 35.7791 24.4899C35.7813 24.487 35.7836 24.4841 35.7857 24.4813C35.7881 24.478 35.7902 24.4746 35.7925 24.4714C35.7932 24.4704 35.7939 24.4693 35.7946 24.4683C35.7998 24.4609 35.8052 24.4536 35.8101 24.4461C35.8116 24.4436 35.8131 24.4413 35.8146 24.4389C35.8199 24.4305 35.8246 24.4218 35.8295 24.4133C35.8341 24.4052 35.8389 24.3973 35.8431 24.3891C35.8433 24.3887 35.8435 24.3884 35.8437 24.3879C35.8444 24.3867 35.845 24.3854 35.8456 24.3841C35.8505 24.3745 35.8548 24.3644 35.8592 24.3545C35.8628 24.3464 35.8667 24.3384 35.8699 24.3301C35.8705 24.3288 35.8711 24.3274 35.8716 24.3261C35.8758 24.3154 35.8792 24.3046 35.8828 24.2937C35.8833 24.2921 35.8839 24.2906 35.8844 24.2891C35.885 24.2871 35.8861 24.2853 35.8867 24.2833L35.8895 24.2747C35.8895 24.2745 35.8895 24.2743 35.8896 24.2741L38.9216 14.673H45.3231C45.3236 14.673 45.324 14.6731 45.3244 14.6731C45.3259 14.6731 45.3275 14.6728 45.329 14.6728C45.3539 14.6726 45.3784 14.671 45.4026 14.6682C45.4095 14.6674 45.4162 14.6662 45.423 14.6652C45.4426 14.6623 45.4619 14.6588 45.4809 14.6543C45.4879 14.6527 45.4948 14.6508 45.5017 14.6489C45.5212 14.6437 45.5402 14.6375 45.5588 14.6306C45.5647 14.6284 45.5706 14.6265 45.5765 14.6241C45.6007 14.6144 45.6243 14.6037 45.6471 14.5913C45.6477 14.5911 45.6482 14.5906 45.6487 14.5904C45.6703 14.5786 45.6909 14.5654 45.7109 14.5514C45.7185 14.5461 45.7258 14.5404 45.7331 14.5348C45.7465 14.5246 45.7595 14.514 45.772 14.5029C45.7792 14.4966 45.7864 14.4903 45.7933 14.4835C45.81 14.4675 45.8258 14.4507 45.8407 14.4331C45.8424 14.4311 45.8442 14.4294 45.8459 14.4274C45.8628 14.4065 45.8781 14.3846 45.8926 14.3621ZM38.4216 11.7711L34.9748 22.6863L29.8045 16.367L38.4216 11.7711ZM3.76426 5.61586L21.3452 8.75529L16.3221 21.313L3.76426 5.61586ZM33.7205 23.2856L17.4868 22.0369L22.4818 9.54944L33.7205 23.2856ZM19.1408 30.3445L17.4008 23.3846L32.4807 24.5445L19.1408 30.3445ZM17.9635 31.2028L14.9601 37.2097L16.6763 26.0541L17.9635 31.2028ZM12.8541 19.1397L2.75136 11.7922H6.97616L12.8541 19.1397ZM39.9449 11.4314L42.9708 13.3225H39.3477L39.9449 11.4314Z" fill="#222222"/>
</svg>
