<svg width="88" height="80" viewBox="0 0 88 80" fill="none" xmlns="http://www.w3.org/2000/svg">
<g clip-path="url(#clip0_6184_224)">
<g opacity="0.9">
<path d="M87.7358 51.8843C88.5393 40.4428 69.6078 29.7137 45.4514 27.92C21.2949 26.1264 1.06085 33.9474 0.257442 45.3889C-0.545971 56.8303 18.3854 67.5595 42.5419 69.3532C66.6984 71.1468 86.9324 63.3257 87.7358 51.8843Z" stroke="url(#paint0_linear_6184_224)" stroke-width="0.8" stroke-miterlimit="10"/>
<path d="M86.1273 49.4961C86.4426 38.3099 67.5487 28.671 43.9267 27.9671C20.3047 27.2631 0.899755 35.7606 0.584497 46.9468C0.269239 58.133 19.1631 67.7718 42.7851 68.4758C66.4071 69.1798 85.8121 60.6822 86.1273 49.4961Z" stroke="url(#paint1_linear_6184_224)" stroke-width="0.8" stroke-miterlimit="10"/>
<path d="M43.0465 67.609C66.1301 67.2237 84.7032 58.0488 84.5306 47.1164C84.358 36.1839 65.5051 27.6338 42.4216 28.0191C19.338 28.4044 0.764905 37.5793 0.937486 48.5117C1.11007 59.4442 19.9629 67.9943 43.0465 67.609Z" stroke="url(#paint2_linear_6184_224)" stroke-width="0.8" stroke-miterlimit="10"/>
<path d="M43.2948 66.7346C65.8425 65.2596 83.5855 55.4071 82.9249 44.7284C82.2642 34.0497 63.4501 26.5887 40.9024 28.0637C18.3547 29.5387 0.611718 39.3911 1.27235 50.0698C1.93298 60.7485 20.7471 68.2095 43.2948 66.7346Z" stroke="url(#paint3_linear_6184_224)" stroke-width="0.8" stroke-miterlimit="10"/>
<path d="M43.5405 65.8641C65.5549 63.3009 82.4707 52.7731 81.323 42.3497C80.1753 31.9264 61.3986 25.5544 39.3841 28.1177C17.3697 30.6809 0.453861 41.2086 1.6016 51.632C2.74933 62.0554 21.526 68.4273 43.5405 65.8641Z" stroke="url(#paint4_linear_6184_224)" stroke-width="0.8" stroke-miterlimit="10"/>
<path d="M43.7803 65.0011C65.2575 61.3489 81.3422 50.1424 79.7064 39.9708C78.0706 29.7992 59.3338 24.5142 37.8567 28.1664C16.3795 31.8186 0.294806 43.025 1.93058 53.1966C3.56635 63.3683 22.3031 68.6533 43.7803 65.0011Z" stroke="url(#paint5_linear_6184_224)" stroke-width="0.8" stroke-miterlimit="10"/>
<path d="M44.0316 64.1276C64.974 59.3849 80.2298 47.5022 78.1062 37.5869C75.9827 27.6716 57.284 23.4784 36.3416 28.2211C15.3991 32.9639 0.143341 44.8465 2.26688 54.7618C4.39041 64.6771 23.0891 68.8703 44.0316 64.1276Z" stroke="url(#paint6_linear_6184_224)" stroke-width="0.8" stroke-miterlimit="10"/>
<path d="M44.2781 63.2603C64.683 57.4295 79.1076 44.8691 76.4962 35.2058C73.8848 25.5426 55.2264 22.4358 34.8214 28.2666C14.4165 34.0974 -0.00805662 46.6578 2.60333 56.3211C5.21471 65.9843 23.8731 69.0911 44.2781 63.2603Z" stroke="url(#paint7_linear_6184_224)" stroke-width="0.8" stroke-miterlimit="10"/>
<path d="M44.5292 62.3798C64.3964 55.4568 77.9889 42.2186 74.8888 32.8115C71.7887 23.4043 53.1701 21.3905 33.3029 28.3135C13.4356 35.2364 -0.15683 48.4746 2.94323 57.8818C6.04328 67.289 24.6619 69.3028 44.5292 62.3798Z" stroke="url(#paint8_linear_6184_224)" stroke-width="0.8" stroke-miterlimit="10"/>
<path d="M44.7801 61.513C64.113 53.5011 76.8772 39.5855 73.2896 30.4317C69.7021 21.2779 51.1214 20.3523 31.7885 28.3642C12.4556 36.3761 -0.30853 50.2917 3.279 59.4455C6.86653 68.5993 25.4472 69.5249 44.7801 61.513Z" stroke="url(#paint9_linear_6184_224)" stroke-width="0.8" stroke-miterlimit="10"/>
<path d="M45.0278 60.6493C63.8247 51.5497 75.7587 36.9565 71.6832 28.0545C67.6077 19.1525 49.066 19.3127 30.2691 28.4123C11.4722 37.512 -0.46178 52.1052 3.61372 61.0072C7.68922 69.9092 26.2309 69.749 45.0278 60.6493Z" stroke="url(#paint10_linear_6184_224)" stroke-width="0.8" stroke-miterlimit="10"/>
<path d="M45.2799 59.7723C63.5397 49.5816 74.6422 34.3102 70.078 25.6626C65.5139 17.0149 47.0115 18.2658 28.7517 28.4564C10.4919 38.6471 -0.610584 53.9185 3.95355 62.5661C8.51769 71.2138 27.0201 69.9629 45.2799 59.7723Z" stroke="url(#paint11_linear_6184_224)" stroke-width="0.8" stroke-miterlimit="10"/>
<path d="M45.5248 58.9027C63.2494 47.6239 73.5239 31.6773 68.4736 23.285C63.4232 14.8927 44.9605 17.2327 27.2358 28.5115C9.51122 39.7903 -0.763304 55.7369 4.28705 64.1292C9.3374 72.5215 27.8002 70.1815 45.5248 58.9027Z" stroke="url(#paint12_linear_6184_224)" stroke-width="0.8" stroke-miterlimit="10"/>
<path d="M45.7756 58.0256C62.9636 45.6543 72.4071 29.0288 66.8682 20.8915C61.3293 12.7542 42.9055 16.1865 25.7174 28.5578C8.52937 40.9291 -0.914129 57.5546 4.62477 65.6919C10.1637 73.8292 28.5875 70.3969 45.7756 58.0256Z" stroke="url(#paint13_linear_6184_224)" stroke-width="0.8" stroke-miterlimit="10"/>
<path d="M46.0185 57.1481C62.6709 43.6875 71.2841 26.3835 65.2566 18.4986C59.2291 10.6137 40.8433 15.1337 24.1909 28.5943C7.53851 42.0548 -1.07467 59.3588 4.95285 67.2437C10.9804 75.1286 29.3661 70.6087 46.0185 57.1481Z" stroke="url(#paint14_linear_6184_224)" stroke-width="0.8" stroke-miterlimit="10"/>
<path d="M46.2589 56.2824C62.3766 41.7321 70.1621 23.7515 63.6482 16.1217C57.1343 8.49181 38.7878 14.102 22.6701 28.6523C6.55233 43.2027 -1.23313 61.1833 5.28074 68.8131C11.7946 76.4429 30.1412 70.8328 46.2589 56.2824Z" stroke="url(#paint15_linear_6184_224)" stroke-width="0.8" stroke-miterlimit="10"/>
<path d="M46.5083 55.4103C62.0878 39.7711 69.0419 21.1144 62.0406 13.7394C55.0393 6.36447 36.734 13.064 21.1545 28.7032C5.57499 44.3424 -1.37904 62.9991 5.62222 70.3741C12.6235 77.7491 30.9288 71.0496 46.5083 55.4103Z" stroke="url(#paint16_linear_6184_224)" stroke-width="0.8" stroke-miterlimit="10"/>
<path d="M46.7569 54.5399C61.8009 37.8106 67.9247 18.4753 60.435 11.3534C52.9452 4.23142 34.678 12.0197 19.634 28.749C4.59007 45.4783 -1.5338 64.8135 5.95598 71.9355C13.4458 79.0574 31.713 71.2692 46.7569 54.5399Z" stroke="url(#paint17_linear_6184_224)" stroke-width="0.8" stroke-miterlimit="10"/>
<path d="M47.0027 53.6665C61.5114 35.8484 66.8075 15.8369 58.8317 8.96965C50.856 2.10239 32.6287 10.9798 18.12 28.798C3.61125 46.6161 -1.68477 66.6276 6.29097 73.4948C14.2667 80.3621 32.494 71.4846 47.0027 53.6665Z" stroke="url(#paint18_linear_6184_224)" stroke-width="0.8" stroke-miterlimit="10"/>
<path d="M47.2497 52.7914C61.2214 33.8838 65.6867 13.1952 57.2233 6.58205C48.7598 -0.0311068 30.5725 9.93546 16.6008 28.843C2.62905 47.7505 -1.83626 68.4392 6.62721 75.0523C15.0907 81.6655 33.278 71.6989 47.2497 52.7914Z" stroke="url(#paint19_linear_6184_224)" stroke-width="0.8" stroke-miterlimit="10"/>
<path d="M47.4981 51.9184C60.9327 31.9224 64.5674 10.5572 55.6163 4.19803C46.6653 -2.16117 28.5181 8.89366 15.0834 28.8897C1.64875 48.8857 -1.98592 70.2509 6.96514 76.6101C15.9162 82.9693 34.0634 71.9144 47.4981 51.9184Z" stroke="url(#paint20_linear_6184_224)" stroke-width="0.8" stroke-miterlimit="10"/>
<path d="M47.7483 51.0634C60.6505 29.9787 63.458 7.93497 54.019 1.82739C44.58 -4.2802 26.4689 7.86115 13.5667 28.9458C0.66441 50.0305 -2.1431 72.0742 7.2959 78.1818C16.7349 84.2894 34.846 72.148 47.7483 51.0634Z" stroke="url(#paint21_linear_6184_224)" stroke-width="0.8" stroke-miterlimit="10"/>
</g>
</g>
<defs>
<linearGradient id="paint0_linear_6184_224" x1="-1.17024" y1="65.7204" x2="7.43861" y2="16.6813" gradientUnits="userSpaceOnUse">
<stop stop-color="#8258C8"/>
<stop offset="0.315" stop-color="#6766C8"/>
<stop offset="1" stop-color="#2C84C8"/>
</linearGradient>
<linearGradient id="paint1_linear_6184_224" x1="0.0242665" y1="66.8247" x2="6.29842" y2="18.6418" gradientUnits="userSpaceOnUse">
<stop stop-color="#8258C8"/>
<stop offset="0.315" stop-color="#6766C8"/>
<stop offset="1" stop-color="#2C84C8"/>
</linearGradient>
<linearGradient id="paint2_linear_6184_224" x1="1.40189" y1="28.7038" x2="85.996" y2="64.8363" gradientUnits="userSpaceOnUse">
<stop stop-color="#8258C8"/>
<stop offset="0.315" stop-color="#6766C8"/>
<stop offset="1" stop-color="#2C84C8"/>
</linearGradient>
<linearGradient id="paint3_linear_6184_224" x1="0.835028" y1="30.6847" x2="85.0945" y2="62.1417" gradientUnits="userSpaceOnUse">
<stop stop-color="#8258C8"/>
<stop offset="0.315" stop-color="#6766C8"/>
<stop offset="1" stop-color="#2C84C8"/>
</linearGradient>
<linearGradient id="paint4_linear_6184_224" x1="0.264346" y1="32.6725" x2="84.2013" y2="59.4903" gradientUnits="userSpaceOnUse">
<stop stop-color="#8258C8"/>
<stop offset="0.315" stop-color="#6766C8"/>
<stop offset="1" stop-color="#2C84C8"/>
</linearGradient>
<linearGradient id="paint5_linear_6184_224" x1="-0.308424" y1="34.6564" x2="83.3196" y2="56.8314" gradientUnits="userSpaceOnUse">
<stop stop-color="#8258C8"/>
<stop offset="0.315" stop-color="#6766C8"/>
<stop offset="1" stop-color="#2C84C8"/>
</linearGradient>
<linearGradient id="paint6_linear_6184_224" x1="-0.873296" y1="36.649" x2="82.4628" y2="54.2135" gradientUnits="userSpaceOnUse">
<stop stop-color="#8258C8"/>
<stop offset="0.315" stop-color="#6766C8"/>
<stop offset="1" stop-color="#2C84C8"/>
</linearGradient>
<linearGradient id="paint7_linear_6184_224" x1="-1.43826" y1="38.628" x2="81.6256" y2="51.5856" gradientUnits="userSpaceOnUse">
<stop stop-color="#8258C8"/>
<stop offset="0.315" stop-color="#6766C8"/>
<stop offset="1" stop-color="#2C84C8"/>
</linearGradient>
<linearGradient id="paint8_linear_6184_224" x1="-2.00128" y1="40.6156" x2="80.8126" y2="48.9758" gradientUnits="userSpaceOnUse">
<stop stop-color="#8258C8"/>
<stop offset="0.315" stop-color="#6766C8"/>
<stop offset="1" stop-color="#2C84C8"/>
</linearGradient>
<linearGradient id="paint9_linear_6184_224" x1="-2.56614" y1="42.6014" x2="80.0345" y2="46.386" gradientUnits="userSpaceOnUse">
<stop stop-color="#8258C8"/>
<stop offset="0.315" stop-color="#6766C8"/>
<stop offset="1" stop-color="#2C84C8"/>
</linearGradient>
<linearGradient id="paint10_linear_6184_224" x1="-3.13301" y1="44.5824" x2="79.2785" y2="43.7886" gradientUnits="userSpaceOnUse">
<stop stop-color="#8258C8"/>
<stop offset="0.315" stop-color="#6766C8"/>
<stop offset="1" stop-color="#2C84C8"/>
</linearGradient>
<linearGradient id="paint11_linear_6184_224" x1="-3.69601" y1="46.5652" x2="78.5535" y2="41.186" gradientUnits="userSpaceOnUse">
<stop stop-color="#8258C8"/>
<stop offset="0.315" stop-color="#6766C8"/>
<stop offset="1" stop-color="#2C84C8"/>
</linearGradient>
<linearGradient id="paint12_linear_6184_224" x1="-4.26089" y1="48.554" x2="77.8551" y2="38.6039" gradientUnits="userSpaceOnUse">
<stop stop-color="#8258C8"/>
<stop offset="0.315" stop-color="#6766C8"/>
<stop offset="1" stop-color="#2C84C8"/>
</linearGradient>
<linearGradient id="paint13_linear_6184_224" x1="-4.82583" y1="50.5416" x2="77.1875" y2="35.9899" gradientUnits="userSpaceOnUse">
<stop stop-color="#8258C8"/>
<stop offset="0.315" stop-color="#6766C8"/>
<stop offset="1" stop-color="#2C84C8"/>
</linearGradient>
<linearGradient id="paint14_linear_6184_224" x1="-5.40049" y1="52.5138" x2="76.5351" y2="33.3499" gradientUnits="userSpaceOnUse">
<stop stop-color="#8258C8"/>
<stop offset="0.315" stop-color="#6766C8"/>
<stop offset="1" stop-color="#2C84C8"/>
</linearGradient>
<linearGradient id="paint15_linear_6184_224" x1="-5.97122" y1="54.5083" x2="75.9092" y2="30.7284" gradientUnits="userSpaceOnUse">
<stop stop-color="#8258C8"/>
<stop offset="0.315" stop-color="#6766C8"/>
<stop offset="1" stop-color="#2C84C8"/>
</linearGradient>
<linearGradient id="paint16_linear_6184_224" x1="-6.53035" y1="56.4942" x2="75.3004" y2="28.0673" gradientUnits="userSpaceOnUse">
<stop stop-color="#8258C8"/>
<stop offset="0.315" stop-color="#6766C8"/>
<stop offset="1" stop-color="#2C84C8"/>
</linearGradient>
<linearGradient id="paint17_linear_6184_224" x1="-7.09916" y1="58.477" x2="74.7075" y2="25.3792" gradientUnits="userSpaceOnUse">
<stop stop-color="#8258C8"/>
<stop offset="0.315" stop-color="#6766C8"/>
<stop offset="1" stop-color="#2C84C8"/>
</linearGradient>
<linearGradient id="paint18_linear_6184_224" x1="-7.6621" y1="60.4609" x2="74.1289" y2="22.6841" gradientUnits="userSpaceOnUse">
<stop stop-color="#8258C8"/>
<stop offset="0.315" stop-color="#6766C8"/>
<stop offset="1" stop-color="#2C84C8"/>
</linearGradient>
<linearGradient id="paint19_linear_6184_224" x1="-8.22705" y1="62.4418" x2="73.5496" y2="19.9518" gradientUnits="userSpaceOnUse">
<stop stop-color="#8258C8"/>
<stop offset="0.315" stop-color="#6766C8"/>
<stop offset="1" stop-color="#2C84C8"/>
</linearGradient>
<linearGradient id="paint20_linear_6184_224" x1="-8.79004" y1="64.4227" x2="72.9734" y2="17.1999" gradientUnits="userSpaceOnUse">
<stop stop-color="#8258C8"/>
<stop offset="0.315" stop-color="#6766C8"/>
<stop offset="1" stop-color="#2C84C8"/>
</linearGradient>
<linearGradient id="paint21_linear_6184_224" x1="-9.3607" y1="66.4134" x2="72.406" y2="14.444" gradientUnits="userSpaceOnUse">
<stop stop-color="#8258C8"/>
<stop offset="0.315" stop-color="#6766C8"/>
<stop offset="1" stop-color="#2C84C8"/>
</linearGradient>
<clipPath id="clip0_6184_224">
<rect width="88" height="80" fill="white"/>
</clipPath>
</defs>
</svg>
