<svg width="84" height="84" viewBox="0 0 84 84" fill="none" xmlns="http://www.w3.org/2000/svg">
<g opacity="0.9">
<path d="M41.9976 83C64.64 83 82.9952 64.6437 82.9952 42C82.9952 19.3563 64.64 1 41.9976 1C19.3553 1 1 19.3563 1 42C1 64.6437 19.3553 83 41.9976 83Z" stroke="url(#paint0_linear_6188_252)" stroke-miterlimit="10"/>
<path d="M82.0594 41.1137C82.0909 43.1738 82.0144 45.1755 81.7758 47.1501C81.1772 52.0351 79.611 56.722 77.2346 60.8963C75.6728 63.6356 73.8365 66.15 71.8381 68.4845C69.8173 70.8505 67.5579 72.9646 64.9789 74.7998C61.9679 76.9409 58.6013 78.6412 54.9872 79.7702C52.5298 80.5439 49.9823 81.0567 47.3764 81.3131C45.7156 81.475 44.0368 81.5245 42.322 81.4885C39.9996 81.439 37.7132 81.2186 35.4763 80.8408C34.1846 80.6203 32.9109 80.355 31.6642 80.0266C25.6781 78.4568 20.1557 75.6365 15.6864 71.5432C14.2776 70.2523 12.9589 68.8669 11.7212 67.4005C10.2449 65.6552 8.8857 63.8155 7.68849 61.8768C6.49578 59.9517 5.46961 57.932 4.60546 55.8179C3.88533 54.0592 3.30023 52.233 2.87266 50.3483C2.23354 47.555 1.94099 44.6357 1.9995 41.6445C2.04001 39.2875 2.28755 36.98 2.68812 34.7219C3.79982 28.4651 6.07271 22.7121 9.64633 17.7507C12.1263 14.3187 15.2003 11.3319 18.6659 8.91196C22.1045 6.50998 25.9347 4.65228 30.0394 3.39731C33.8875 2.21881 37.9878 1.5576 42.205 1.49013C49.1632 1.38217 55.7118 3.10943 61.4548 6.21311C67.2653 9.35727 72.2072 13.9318 75.7628 19.4779C79.7685 25.7258 81.9424 33.1611 82.0639 41.1137H82.0594Z" stroke="url(#paint1_linear_6188_252)" stroke-miterlimit="10"/>
<path d="M81.1161 40.2325C81.1791 42.2566 81.1881 44.2133 81.0081 46.1475C80.5625 50.9424 79.0773 55.6294 76.6963 59.7542C75.1211 62.471 73.3072 64.936 71.4394 67.2975C69.5581 69.6679 67.4697 71.7955 64.9673 73.6622C62.0418 75.8393 58.7157 77.5441 55.1151 78.6101C52.6757 79.3388 50.1507 79.7796 47.5988 79.9595C45.9695 80.0675 44.3267 80.0585 42.6479 79.9865C40.3885 79.8876 38.1472 79.6492 35.9553 79.2803C34.6861 79.0689 33.4393 78.8215 32.2151 78.5202C26.3596 77.0628 20.8597 74.4809 16.5389 70.3786C15.1842 69.0922 13.9195 67.7158 12.7087 66.2764C11.2685 64.5626 9.90476 62.7814 8.69855 60.9237C7.49684 59.0795 6.46166 57.1498 5.566 55.1212C4.81887 53.4254 4.21127 51.6576 3.78369 49.8224C3.14008 47.0966 2.88804 44.2313 3.00056 41.2941C3.08607 38.991 3.36512 36.733 3.77019 34.5154C4.89089 28.3621 6.86223 22.7125 10.3323 17.7871C12.7357 14.391 15.7963 11.4718 19.2259 9.14628C22.633 6.83427 26.4136 5.08451 30.4508 3.89252C34.245 2.7725 38.2822 2.11128 42.4004 1.98534C49.1336 1.77393 55.4842 3.37974 61.1011 6.33948C66.7721 9.3397 71.6105 13.7658 75.0536 19.1725C78.9332 25.2719 80.8776 32.5138 81.1206 40.228L81.1161 40.2325Z" stroke="url(#paint2_linear_6188_252)" stroke-miterlimit="10"/>
<path d="M80.1786 39.3466C80.2731 41.3392 80.3631 43.2419 80.2506 45.1401C79.958 49.8406 78.5493 54.5321 76.1639 58.6119C74.5751 61.3107 72.7883 63.7217 71.042 66.1102C69.3047 68.4896 67.3874 70.6262 64.9524 72.5199C62.1169 74.7285 58.8224 76.4467 55.2398 77.4453C52.8138 78.129 50.3204 78.4979 47.818 78.5968C46.2202 78.6553 44.6179 78.5878 42.9706 78.4754C40.7742 78.327 38.5824 78.0661 36.4265 77.7152C35.1843 77.5128 33.9556 77.2834 32.7538 77.0045C27.0244 75.6686 21.5514 73.3161 17.3837 69.2003C16.0875 67.9184 14.8767 66.5555 13.693 65.1386C12.2843 63.4518 10.9206 61.7335 9.70535 59.9568C8.49914 58.1935 7.44596 56.3538 6.5233 54.4107C5.74466 52.7734 5.11905 51.0641 4.68698 49.2828C4.03887 46.6245 3.82733 43.8132 3.99386 40.9344C4.12438 38.6854 4.43943 36.4813 4.84451 34.3042C5.9697 28.2543 7.64399 22.7082 11.0106 17.8188C13.3375 14.4632 16.3845 11.6114 19.7781 9.37588C23.1492 7.15833 26.8803 5.51653 30.859 4.38301C34.5947 3.32147 38.5734 2.66475 42.5971 2.47133C49.1052 2.15646 55.2623 3.64083 60.7532 6.46113C66.2802 9.31741 71.0195 13.5996 74.3456 18.8623C78.0992 24.8088 79.8185 31.8618 80.1786 39.3376V39.3466Z" stroke="url(#paint3_linear_6188_252)" stroke-miterlimit="10"/>
<path d="M79.241 38.4644C79.3715 40.4256 79.5381 42.2743 79.4886 44.1365C79.349 48.7425 78.0213 53.4385 75.6269 57.4688C74.0291 60.1497 72.2603 62.5067 70.64 64.9221C69.0422 67.3016 67.2959 69.4562 64.9375 71.3814C62.1876 73.6259 58.9335 75.3532 55.3644 76.2843C52.9565 76.923 50.49 77.2244 48.0371 77.2424C46.4708 77.2514 44.9091 77.1209 43.2933 76.977C41.1599 76.7836 39.0175 76.5002 36.9022 76.1628C35.6825 75.9694 34.4807 75.7625 33.3015 75.5061C27.7026 74.2871 22.2521 72.173 18.2329 68.0438C16.9907 66.7708 15.834 65.4169 14.6773 64.0225C13.3001 62.3627 11.9363 60.7074 10.7121 59.0072C9.49691 57.3204 8.43473 55.5751 7.48056 53.7174C6.67492 52.1431 6.02681 50.4923 5.59474 48.7605C4.94212 46.1696 4.77109 43.4078 4.99163 40.592C5.16266 38.3969 5.51822 36.2469 5.92329 34.1058C7.05749 28.1593 8.43023 22.7166 11.6978 17.8632C13.9482 14.5436 16.9817 11.7593 20.3438 9.61824C23.6834 7.49064 27.365 5.9568 31.2807 4.89075C34.9623 3.88768 38.8825 3.23096 42.8027 2.97457C49.0903 2.56075 55.0448 3.91917 60.4142 6.60002C65.8017 9.31686 70.433 13.4506 73.6465 18.5694C77.2742 24.3629 78.7729 31.2315 79.25 38.4644H79.241Z" stroke="url(#paint4_linear_6188_252)" stroke-miterlimit="10"/>
<path d="M78.302 37.578C78.464 39.5076 78.7116 41.3024 78.7251 43.1286C78.7386 47.6447 77.4874 52.3362 75.0884 56.3215C73.4772 58.9798 71.7309 61.2873 70.2366 63.7253C68.7784 66.1093 67.2031 68.2774 64.9212 70.234C62.2567 72.5146 59.0432 74.2508 55.4875 75.1144C53.0931 75.7082 50.6582 75.9421 48.2548 75.8791C46.7155 75.8386 45.1988 75.6497 43.6145 75.4653C41.5441 75.2224 39.4513 74.921 37.3719 74.5972C36.1792 74.4082 34.9955 74.2238 33.8388 73.9899C28.3703 72.8834 22.9424 71.0122 19.0717 66.8695C17.888 65.601 16.7808 64.2606 15.6511 62.8887C14.3054 61.2604 12.9417 59.6635 11.7084 58.0442C10.4842 56.4384 9.40855 54.7831 8.43188 53.0109C7.59474 51.495 6.92412 49.9027 6.49204 48.2204C5.83493 45.697 5.69991 42.9892 5.97896 40.2318C6.19499 38.0907 6.58206 35.9901 6.99163 33.8895C8.13483 28.051 9.19701 22.7028 12.3701 17.8899C14.5394 14.6063 17.564 11.8894 20.89 9.84281C24.1936 7.80967 27.8302 6.38378 31.6784 5.37621C35.3015 4.43161 39.1587 3.77939 42.9889 3.45553C49.0514 2.93825 54.8169 4.16173 60.0513 6.71664C65.3037 9.28055 69.827 13.2748 72.9236 18.2542C76.4252 23.8948 77.7034 30.5745 78.293 37.569L78.302 37.578Z" stroke="url(#paint5_linear_6188_252)" stroke-miterlimit="10"/>
<path d="M77.364 36.6954C77.5621 38.5936 77.8906 40.3344 77.9626 42.1291C78.1382 46.5507 76.9545 51.2467 74.551 55.1825C72.9263 57.8229 71.2025 60.072 69.8342 62.5414C68.511 64.9254 67.1113 67.1114 64.9059 69.0996C62.3314 71.4161 59.1539 73.1524 55.6118 73.9575C53.2353 74.4973 50.8229 74.6682 48.4735 74.5288C46.9658 74.4388 45.4895 74.1914 43.9367 73.9665C41.9294 73.6786 39.886 73.3548 37.8472 73.0444C36.677 72.8645 35.5203 72.7026 34.3861 72.4912C29.0436 71.4971 23.6427 69.8643 19.9206 65.7125C18.7909 64.4531 17.7377 63.1172 16.635 61.7767C15.3208 60.1754 13.9525 58.6416 12.7193 57.1032C11.4861 55.5739 10.4014 54.0085 9.39322 52.3263C8.52457 50.8734 7.84045 49.3395 7.40388 47.7067C6.74676 45.2508 6.64775 42.5969 6.9808 39.8981C7.23735 37.811 7.66492 35.7643 8.07449 33.7042C9.22219 27.9692 9.98733 22.7244 13.0569 17.9474C15.1452 14.6998 18.1607 12.0549 21.4508 10.0983C24.7229 8.15511 28.3055 6.83717 32.0952 5.89257C35.6598 5.00645 39.4584 4.35873 43.1896 3.96739C49.0271 3.35116 54.5991 4.44869 59.7075 6.86416C64.8249 9.27963 69.2401 13.1345 72.2196 17.9699C75.5952 23.4576 76.6529 29.9528 77.355 36.7044L77.364 36.6954Z" stroke="url(#paint6_linear_6188_252)" stroke-miterlimit="10"/>
<path d="M76.4261 35.8103C76.6557 37.677 77.0697 39.3638 77.2003 41.1225C77.5288 45.4497 76.4261 50.1502 74.0182 54.0365C72.3799 56.6544 70.6786 58.8495 69.4364 61.3504C68.2527 63.7299 67.0285 65.9384 64.8951 67.9581C62.4062 70.3106 59.2647 72.0558 55.7405 72.7935C53.3776 73.2883 50.9967 73.3873 48.7013 73.1669C47.2251 73.0274 45.7893 72.7171 44.2681 72.4562C42.3237 72.1233 40.3299 71.777 38.327 71.4801C37.1793 71.3092 36.0451 71.1652 34.9379 70.9763C29.726 70.0992 24.3476 68.7048 20.774 64.535C19.6983 63.2801 18.6991 61.9576 17.6279 60.6397C16.3497 59.0699 14.977 57.5945 13.7348 56.1326C12.497 54.6842 11.3943 53.2089 10.3592 51.6121C9.45901 50.2177 8.75689 48.7423 8.31581 47.1635C7.6542 44.775 7.59569 42.1751 7.98275 39.5347C8.2843 37.5016 8.74338 35.5089 9.15746 33.4848C10.3142 27.8532 10.7732 22.7119 13.7483 17.9709C15.7601 14.7593 18.7621 12.1819 22.0207 10.3197C25.2613 8.47097 28.7944 7.26099 32.521 6.37936C36.0316 5.55172 39.7673 4.91299 43.4039 4.44969C49.0164 3.73899 54.3903 4.70158 59.3772 6.97761C64.355 9.24914 68.6668 12.9601 71.5338 17.6516C74.7788 22.9908 75.6295 29.2926 76.4351 35.8058L76.4261 35.8103Z" stroke="url(#paint7_linear_6188_252)" stroke-miterlimit="10"/>
<path d="M75.4838 34.9283C75.7494 36.7635 76.24 38.3963 76.4335 40.1191C76.9151 44.3518 75.8889 49.0568 73.4765 52.8936C71.8292 55.4935 70.1459 57.6256 69.0297 60.158C67.981 62.5375 66.9323 64.764 64.8755 66.8107C62.4766 69.1992 59.371 70.9534 55.8604 71.6281C53.5155 72.0779 51.1571 72.1049 48.9157 71.808C47.471 71.6146 46.0757 71.2503 44.586 70.9534C42.7091 70.5756 40.7558 70.2067 38.798 69.9189C37.6773 69.7524 36.5656 69.631 35.4764 69.469C30.395 68.7044 25.0391 67.5574 21.614 63.3696C20.5923 62.1237 19.6516 60.8102 18.6029 59.5148C17.3562 57.9719 15.9835 56.5596 14.7323 55.1786C13.4856 53.8067 12.3649 52.4258 11.3072 50.919C10.371 49.5875 9.65539 48.1706 9.21431 46.6413C8.5482 44.3203 8.52569 41.7744 8.97127 39.1925C9.31333 37.2088 9.81292 35.2701 10.227 33.2865C11.3882 27.7583 11.5502 22.7205 14.4217 18.0155C16.3571 14.8444 19.3456 12.3299 22.5681 10.5622C25.7727 8.80344 29.2608 7.70141 32.9199 6.88276C36.372 6.11359 40.0492 5.47936 43.5868 4.94858C48.9742 4.14343 54.1546 4.97557 59.0155 7.11216C63.8538 9.23975 68.062 12.8022 70.812 17.3588C73.9311 22.5451 74.5702 28.6625 75.4793 34.9328L75.4838 34.9283Z" stroke="url(#paint8_linear_6188_252)" stroke-miterlimit="10"/>
<path d="M74.5475 34.0429C74.849 35.8467 75.4161 37.4255 75.6771 39.1123C76.3118 43.255 75.3711 47.9645 72.9452 51.7474C71.2889 54.3293 69.6191 56.4029 68.6334 58.9668C67.7198 61.3418 66.8466 63.5908 64.8663 65.669C62.5529 68.0934 59.4878 69.8522 55.9907 70.4639C53.6593 70.8687 51.3324 70.8237 49.1405 70.4504C47.7228 70.2075 46.3726 69.7847 44.9143 69.4473C43.1005 69.0245 41.1967 68.6332 39.2748 68.3588C38.1766 68.2014 37.0874 68.0979 36.0253 67.9585C31.0744 67.3063 25.741 66.4021 22.4689 62.2009C21.5012 60.9595 20.6146 59.655 19.5929 58.3866C18.3777 56.8752 17.005 55.5213 15.7447 54.2213C14.489 52.9304 13.3548 51.6394 12.2746 50.218C11.307 48.9451 10.5688 47.5867 10.1278 46.1068C9.45265 43.8533 9.47515 41.3613 9.97474 38.8379C10.3573 36.9082 10.8929 35.0235 11.3115 33.0804C12.4817 27.6557 12.3422 22.7213 15.1101 18.0523C16.969 14.9171 19.944 12.4747 23.1305 10.7969C26.3036 9.13258 29.7422 8.1385 33.3383 7.37833C36.7364 6.66763 40.346 6.0424 43.7936 5.43966C48.9515 4.54004 53.9429 5.23724 58.6732 7.23889C63.372 9.22254 67.4767 12.6411 70.1097 17.0537C73.1027 22.0871 73.5348 28.02 74.5475 34.0474V34.0429Z" stroke="url(#paint9_linear_6188_252)" stroke-miterlimit="10"/>
<path d="M73.6052 33.1612C73.9427 34.9334 74.5863 36.4583 74.9104 38.1091C75.698 42.1573 74.8384 46.8713 72.4035 50.6047C70.7337 53.1686 69.0819 55.1748 68.2267 57.7792C67.4481 60.1497 66.755 62.4167 64.8467 64.5308C62.6233 66.9912 59.5942 68.759 56.1106 69.3033C53.7972 69.6631 51.4973 69.5462 49.355 69.0919C47.9687 68.7995 46.659 68.3182 45.2322 67.9403C43.4814 67.4725 41.6271 67.0587 39.7458 66.7978C38.6746 66.6494 37.6079 66.5684 36.5682 66.4515C31.7479 65.9117 26.4325 65.255 23.3134 61.0358C22.4043 59.8033 21.5671 58.5079 20.5725 57.2619C19.3888 55.7775 18.016 54.4866 16.7468 53.2631C15.4821 52.0486 14.3344 50.8476 13.2272 49.5162C12.2235 48.3062 11.4719 47.0063 11.0308 45.5759C10.3512 43.3898 10.4097 40.9519 10.9678 38.4869C11.3909 36.6112 11.967 34.7805 12.3855 32.8733C13.5647 27.5521 13.1237 22.7211 15.7926 18.0881C17.5749 14.9934 20.5365 12.614 23.6915 11.0306C26.8285 9.4563 30.2176 8.57018 33.7553 7.87748C37.0948 7.22526 40.646 6.60902 43.9945 5.93881C48.9274 4.94923 53.7207 5.51149 58.3295 7.37369C62.8843 9.21341 66.89 12.4835 69.4059 16.7567C72.2729 21.6371 72.5025 27.3857 73.6097 33.1702L73.6052 33.1612Z" stroke="url(#paint10_linear_6188_252)" stroke-miterlimit="10"/>
<path d="M72.6704 32.2756C73.0485 34.0163 73.7686 35.4872 74.1512 37.102C75.0918 41.0558 74.3087 45.7743 71.8738 49.4582C70.1905 51.9997 68.5567 53.9473 67.8321 56.5832C67.184 58.9447 66.6709 61.2387 64.839 63.3843C62.7012 65.8807 59.7127 67.6575 56.2426 68.1343C53.9427 68.4491 51.6698 68.2602 49.5814 67.7294C48.2267 67.3831 46.9574 66.8523 45.5622 66.4295C43.8744 65.9212 42.0696 65.4804 40.2243 65.233C39.1756 65.0891 38.1359 65.0306 37.1142 64.9361C32.4244 64.5043 27.127 64.0995 24.161 59.8578C23.3058 58.6343 22.5227 57.3479 21.555 56.1244C20.4028 54.6715 19.0301 53.439 17.7519 52.2965C16.4782 51.163 15.3124 50.052 14.1828 48.806C13.1476 47.659 12.3779 46.413 11.9324 45.0366C11.2482 42.918 11.3428 40.534 11.9594 38.1276C12.4229 36.3059 13.0396 34.5246 13.4581 32.6579C14.6418 27.4401 13.9037 22.7127 16.4691 18.1156C18.1749 15.0569 21.123 12.7449 24.242 11.256C27.3475 9.77617 30.6871 8.99801 34.1572 8.36378C37.4428 7.77003 40.9264 7.16279 44.185 6.4206C48.8928 5.34556 53.4926 5.76389 57.9754 7.48665C62.3906 9.18243 66.2928 12.3086 68.6917 16.4378C71.4327 21.1653 71.4597 26.7294 72.6614 32.2711L72.6704 32.2756Z" stroke="url(#paint11_linear_6188_252)" stroke-miterlimit="10"/>
<path d="M71.7291 31.3933C72.1432 33.1026 72.9399 34.5195 73.3854 36.0983C74.4791 39.9576 73.777 44.6761 71.3331 48.3151C69.6408 50.8385 68.016 52.7232 67.4264 55.395C66.9088 57.752 66.5757 60.0685 64.8159 62.2411C62.7681 64.769 59.8156 66.5593 56.359 66.9686C54.0771 67.2385 51.8312 66.9776 49.7923 66.3704C48.4691 65.9745 47.2404 65.3853 45.8767 64.9265C44.2564 64.3777 42.4966 63.9099 40.6918 63.676C39.6656 63.5411 38.6484 63.5006 37.6537 63.4331C33.0944 63.1137 27.815 62.9563 25.002 58.6966C24.2009 57.4822 23.4718 56.2047 22.5356 55.0082C21.4194 53.5823 20.0422 52.4128 18.7549 51.3513C17.4767 50.2942 16.2885 49.2822 15.1363 48.1171C14.0651 47.0286 13.282 45.8456 12.8364 44.5142C12.1478 42.4631 12.2828 40.1331 12.9534 37.7851C13.462 36.0173 14.1101 34.2901 14.5377 32.4638C15.7304 27.3495 14.6907 22.7255 17.1527 18.1644C18.7864 15.1462 21.7165 12.8972 24.7995 11.5028C27.8735 10.1129 31.1636 9.44266 34.5707 8.8714C37.7977 8.33613 41.2228 7.74238 44.3824 6.92373C48.8607 5.76323 53.2669 6.04211 57.6237 7.62543C61.8994 9.18177 65.6981 12.1595 67.9845 16.1448C70.5949 20.7238 70.4329 26.0946 71.7201 31.3978L71.7291 31.3933Z" stroke="url(#paint12_linear_6188_252)" stroke-miterlimit="10"/>
<path d="M70.7873 30.5119C71.2419 32.1897 72.1106 33.5526 72.6192 35.0955C73.8659 38.8603 73.2403 43.5833 70.7919 47.1773C69.0861 49.6782 67.4703 51.4999 67.0202 54.2123C66.6286 56.5603 66.4801 58.9038 64.7968 61.1078C62.8345 63.6718 59.918 65.471 56.4794 65.8128C54.211 66.0377 51.9966 65.7049 50.0072 65.0167C48.711 64.5669 47.5273 63.9281 46.1996 63.4244C44.6423 62.8351 42.932 62.3403 41.1632 62.1199C40.164 61.994 39.1694 61.9715 38.1927 61.9265C33.7684 61.7196 28.5025 61.8095 25.8425 57.5319C25.0909 56.3264 24.4203 55.0534 23.5111 53.8839C22.4264 52.4895 21.0447 51.3785 19.7575 50.3979C18.4703 49.4218 17.2596 48.4997 16.0938 47.4202C14.9822 46.3946 14.19 45.2656 13.7399 43.9882C13.0468 42.0045 13.2178 39.7285 13.947 37.4389C14.4961 35.7252 15.1847 34.0519 15.6123 32.2617C16.8095 27.2508 15.4727 22.7302 17.8357 18.2052C19.3929 15.2229 22.3094 13.0459 25.361 11.7414C28.399 10.446 31.6395 9.88371 34.9881 9.37543C38.1612 8.89863 41.5188 8.31838 44.5883 7.42326C48.8415 6.18179 53.0543 6.31673 57.285 7.76062C61.4212 9.17301 65.1164 12.0023 67.2857 15.8482C69.7702 20.2743 69.4146 25.4606 70.7873 30.5209V30.5119Z" stroke="url(#paint13_linear_6188_252)" stroke-miterlimit="10"/>
<path d="M69.8543 29.6265C70.3539 31.2728 71.29 32.5817 71.8661 34.0886C73.2659 37.7635 72.7168 42.4865 70.2639 46.031C68.5446 48.5139 66.9423 50.2727 66.6272 53.021C66.3617 55.36 66.4022 57.7305 64.7909 59.966C62.9141 62.5659 60.0381 64.3742 56.613 64.6485C54.3626 64.8285 52.1707 64.4236 50.2354 63.659C48.9707 63.1597 47.8275 62.467 46.5312 61.9182C45.037 61.2885 43.3762 60.7667 41.6479 60.5553C40.6712 60.4383 39.6991 60.4338 38.7494 60.4158C34.4557 60.3169 29.2032 60.6632 26.7008 56.3631C26.0032 55.1666 25.3911 53.9026 24.5044 52.7556C23.4512 51.3882 22.0695 50.3401 20.7733 49.436C19.4771 48.5409 18.2483 47.7088 17.0601 46.7147C15.9124 45.7521 15.1023 44.6816 14.6567 43.4536C13.9591 41.5374 14.1661 39.3153 14.9538 37.0843C15.5434 35.4245 16.268 33.8007 16.7001 32.0509C17.9063 27.148 16.268 22.7309 18.5274 18.2373C20.0081 15.2956 22.9111 13.1815 25.9267 11.9715C28.9332 10.7705 32.1242 10.3117 35.4053 9.86642C38.5199 9.4481 41.8189 8.88584 44.7894 7.90975C48.8176 6.58732 52.8323 6.57832 56.9416 7.88276C60.9382 9.15122 64.5299 11.8366 66.5822 15.5385C68.9406 19.8117 68.396 24.8135 69.8543 29.631V29.6265Z" stroke="url(#paint14_linear_6188_252)" stroke-miterlimit="10"/>
<path d="M68.9125 28.7448C69.4526 30.3596 70.4608 31.6145 71.0999 33.0854C72.6482 36.6659 72.1846 41.3934 69.7272 44.8884C67.9944 47.3488 66.3966 49.0446 66.2255 51.8289C66.0815 54.1634 66.3111 56.5564 64.7763 58.8234C62.9895 61.4593 60.1495 63.2765 56.7379 63.4834C54.5055 63.6184 52.3406 63.1416 50.4548 62.3004C49.2216 61.7472 48.1189 61.005 46.8542 60.4113C45.4229 59.741 43.8072 59.1878 42.1239 58.9944C41.1742 58.8819 40.2245 58.8999 39.2974 58.9044C35.1342 58.9134 29.8952 59.5161 27.5548 55.1935C26.9112 54.006 26.3531 52.751 25.4935 51.6265C24.4718 50.2861 23.0901 49.301 21.7848 48.4779C20.4796 47.6592 19.2329 46.926 18.0222 46.0129C16.8385 45.1178 16.0148 44.0967 15.5648 42.9227C14.8581 41.074 15.1057 38.9059 15.9563 36.7334C16.5819 35.1276 17.3516 33.5577 17.7836 31.8484C18.9989 27.049 17.059 22.7353 19.2149 18.2777C20.6191 15.372 23.5086 13.3254 26.4882 12.2098C29.4587 11.0988 32.6047 10.7525 35.8228 10.3656C38.8833 10.0058 42.1194 9.46151 44.9909 8.40446C48.794 7.00556 52.6152 6.84812 56.5984 8.01313C60.4555 9.13765 63.9437 11.6791 65.879 15.237C68.1114 19.3573 67.3822 24.1702 68.917 28.7493L68.9125 28.7448Z" stroke="url(#paint15_linear_6188_252)" stroke-miterlimit="10"/>
<path d="M67.9723 27.8581C68.5574 29.4369 69.633 30.6424 70.3352 32.0818C72.0365 35.5678 71.6449 40.2908 69.1875 43.7453C67.4367 46.1833 65.8479 47.8206 65.8209 50.6409C65.7984 52.9664 66.217 55.3864 64.7587 57.6849C63.0574 60.3567 60.2579 62.183 56.8643 62.3224C54.6454 62.4169 52.5121 61.8636 50.6758 60.9415C49.474 60.3387 48.4119 59.5426 47.1786 58.9084C45.8104 58.2022 44.2441 57.6174 42.5969 57.4375C41.6697 57.334 40.7425 57.3745 39.8379 57.397C35.8052 57.5139 30.5753 58.3731 28.3969 54.0234C27.8028 52.8449 27.3032 51.5945 26.4751 50.4969C25.4849 49.188 24.1031 48.2614 22.7889 47.5192C21.4792 46.7815 20.2055 46.1428 18.9813 45.3107C17.757 44.4785 16.9244 43.5159 16.4743 42.3869C15.7632 40.6057 16.0467 38.4916 16.9559 36.3775C17.622 34.8256 18.4322 33.3098 18.8642 31.6365C20.0839 26.9405 17.8516 22.7303 19.9039 18.3087C21.2316 15.4434 24.1076 13.4642 27.0512 12.4387C29.9902 11.4221 33.0822 11.1792 36.2418 10.8554C39.2438 10.554 42.4213 10.0322 45.1983 8.8897C48.7764 7.41883 52.3996 7.10846 56.2567 8.12952C59.9699 9.1146 63.3545 11.5031 65.1773 14.9216C67.2836 18.8889 66.3745 23.513 67.9813 27.8491L67.9723 27.8581Z" stroke="url(#paint16_linear_6188_252)" stroke-miterlimit="10"/>
<path d="M67.0354 26.9765C67.6655 28.5239 68.8087 29.6754 69.5738 31.0788C71.4236 34.4748 71.1131 39.1978 68.6512 42.6029C66.8914 45.0228 65.2981 46.5927 65.4196 49.4534C65.5186 51.7744 66.1307 54.2169 64.7445 56.5424C63.1332 59.2503 60.3697 61.0855 56.9896 61.1574C54.7888 61.2069 52.6779 60.5817 50.8956 59.5831C49.7209 58.9264 48.6992 58.0808 47.502 57.4015C46.1923 56.6594 44.68 56.0431 43.0732 55.8767C42.1686 55.7822 41.2684 55.8407 40.3863 55.8902C36.4841 56.1151 31.2677 57.2306 29.2468 52.8585C28.7067 51.689 28.2612 50.4475 27.46 49.3725C26.5058 48.0905 25.1196 47.2269 23.7964 46.5612C22.4776 45.9 21.1814 45.3602 19.9392 44.609C18.6745 43.8443 17.8283 42.9357 17.3783 41.8562C16.6626 40.1424 16.9777 38.0823 17.9499 36.0267C18.6565 34.5288 19.5026 33.0624 19.9392 31.4296C21.1679 26.8371 18.634 22.7348 20.5828 18.3447C21.8385 15.5154 24.6965 13.6037 27.6085 12.6726C30.5115 11.746 33.5586 11.6156 36.6506 11.3547C39.5941 11.1118 42.7132 10.6125 45.3911 9.38903C48.7487 7.85069 52.1693 7.38289 55.9049 8.26451C59.4786 9.11015 62.7596 11.3502 64.4699 14.6248C66.4458 18.4437 65.3656 22.8698 67.0399 26.972L67.0354 26.9765Z" stroke="url(#paint17_linear_6188_252)" stroke-miterlimit="10"/>
<path d="M66.0923 26.09C66.7719 27.6013 67.9781 28.7033 68.8063 30.0708C70.8091 33.3724 70.5751 38.0998 68.1087 41.4554C66.3354 43.8529 64.7421 45.3687 65.0121 48.2565C65.2282 50.573 66.0338 53.038 64.7241 55.395C63.1983 58.1388 60.4753 59.983 57.1087 59.9875C54.9214 59.9875 52.842 59.2903 51.1092 58.2198C49.966 57.5136 48.9803 56.6184 47.8191 55.8897C46.5724 55.1116 45.1097 54.4639 43.5389 54.3109C42.6612 54.221 41.7836 54.3019 40.9239 54.3739C37.1523 54.7068 31.9404 56.0787 30.0861 51.684C29.5955 50.5235 29.2084 49.2911 28.4343 48.243C27.5116 46.9925 26.1254 46.1874 24.7931 45.6026C23.4654 45.0224 22.1467 44.5816 20.8865 43.9069C19.5812 43.2097 18.7261 42.3505 18.276 41.325C17.5559 39.6787 17.9069 37.6725 18.9376 35.6754C19.6848 34.227 20.5714 32.8191 21.008 31.2268C22.2412 26.7377 19.4147 22.7389 21.2555 18.3848C22.4347 15.5959 25.2792 13.7472 28.1552 12.9106C31.0267 12.0784 34.0242 12.0515 37.0533 11.8535C39.9428 11.6691 43.0033 11.2013 45.5822 9.88338C48.7193 8.28206 51.9419 7.65683 55.5515 8.39452C58.9856 9.09622 62.1631 11.1878 63.7564 14.323C65.6062 17.9889 64.355 22.2216 66.0923 26.09Z" stroke="url(#paint18_linear_6188_252)" stroke-miterlimit="10"/>
<path d="M65.1579 25.209C65.887 26.6843 67.1563 27.7414 68.0519 29.0683C70.1988 32.2799 70.0548 37.0074 67.5793 40.3135C65.7925 42.693 64.1992 44.1459 64.6178 47.0696C64.9509 49.3816 65.95 51.8691 64.7168 54.2576C63.2811 57.0374 60.5896 58.8951 57.241 58.8276C55.0717 58.7916 53.0193 58.0135 51.336 56.8664C50.2243 56.1063 49.2791 55.1662 48.1495 54.388C46.9612 53.5738 45.5525 52.8946 44.0222 52.7507C43.1671 52.6697 42.3119 52.7642 41.4748 52.8676C37.8337 53.3085 32.6263 54.9368 30.9385 50.5196C30.4974 49.3681 30.1733 48.1447 29.4217 47.1191C28.5305 45.8956 27.1443 45.1534 25.8031 44.6497C24.4663 44.1459 23.1251 43.8085 21.8469 43.2103C20.5012 42.585 19.637 41.7754 19.1824 40.7948C18.4533 39.216 18.8449 37.2593 19.9341 35.3206C20.7172 33.9262 21.6443 32.5678 22.0854 31.016C23.3276 26.6303 20.1996 22.735 21.9369 18.4169C23.0441 15.6685 25.8706 13.8873 28.7106 13.1406C31.5506 12.3984 34.4986 12.4839 37.4646 12.3444C40.2956 12.2185 43.3021 11.7777 45.7775 10.3698C48.6985 8.7055 51.7141 7.91833 55.1977 8.51658C58.4877 9.07884 61.5663 11.022 63.0425 14.0132C64.7663 17.5262 63.3486 21.561 65.1444 25.2L65.1579 25.209Z" stroke="url(#paint19_linear_6188_252)" stroke-miterlimit="10"/>
<path d="M64.2164 24.3233C64.995 25.7627 66.3272 26.7703 67.2859 28.0612C69.5858 31.1829 69.5183 35.9104 67.0429 39.167C65.2425 41.524 63.6448 42.9229 64.2164 45.8781C64.6664 48.1901 65.8591 50.6911 64.7024 53.1155C63.3522 55.9313 60.7013 57.798 57.3662 57.6631C55.2103 57.5821 53.1894 56.7275 51.5602 55.504C50.48 54.6899 49.5708 53.7048 48.4771 52.8816C47.3474 52.0315 45.9927 51.3208 44.4984 51.1904C43.6703 51.1184 42.8377 51.2308 42.023 51.3568C38.5124 51.901 33.3095 53.7902 31.7882 49.3461C31.3967 48.2036 31.1311 46.9846 30.411 45.9861C29.5513 44.7941 28.1606 44.1104 26.8194 43.6831C25.4736 43.2602 24.1144 43.0218 22.8182 42.5001C21.4364 41.9468 20.5543 41.1821 20.1042 40.2555C19.3706 38.7442 19.7937 36.8415 20.9459 34.9613C21.7695 33.6209 22.7372 32.3164 23.1782 30.8006C24.4295 26.5184 21.0134 22.731 22.6381 18.4443C23.6778 15.7365 26.4818 14.0182 29.2903 13.366C32.0943 12.7183 34.9928 12.9072 37.8958 12.8352C40.6728 12.7678 43.6253 12.3629 45.9972 10.8561C48.7067 9.13331 51.5107 8.18421 54.8727 8.63852C58.0233 9.06134 60.9983 10.8561 62.3575 13.7034C63.9553 17.0634 62.371 20.8958 64.2299 24.3098L64.2164 24.3233Z" stroke="url(#paint20_linear_6188_252)" stroke-miterlimit="10"/>
<path d="M63.279 23.4398C64.1161 24.8387 65.5024 25.8013 66.5241 27.0563C68.977 30.0835 68.9905 34.8155 66.506 38.0226C64.6922 40.3616 63.09 41.702 63.8146 44.6843C64.3772 46.9963 65.7724 49.5152 64.6832 51.9712C63.423 54.8184 60.8081 56.6986 57.4865 56.4962C55.3486 56.3703 53.3548 55.4437 51.775 54.1437C50.7263 53.2801 49.8487 52.2455 48.7955 51.3729C47.7243 50.4868 46.4191 49.7446 44.9698 49.6277C44.1642 49.5647 43.354 49.6951 42.5619 49.8481C39.1818 50.4958 33.9744 52.6504 32.6332 48.1793C32.2911 47.0458 32.0841 45.8358 31.391 44.8597C30.5628 43.6947 29.1721 43.074 27.8218 42.7276C26.4716 42.3813 25.0854 42.2463 23.7711 41.801C22.3489 41.3197 21.4577 40.6045 21.0032 39.7274C20.2605 38.288 20.7196 36.4303 21.9348 34.6131C22.7945 33.3221 23.8026 32.0761 24.2482 30.6008C25.5039 26.4221 21.7908 22.7426 23.3121 18.4874C24.2752 15.8156 27.0657 14.1648 29.8382 13.607C32.6107 13.0493 35.4597 13.3506 38.2997 13.3371C41.0181 13.3281 43.9301 12.9593 46.185 11.3535C48.6875 9.57225 51.2754 8.46572 54.516 8.7671C57.527 9.05947 60.3985 10.6923 61.6407 13.4001C63.1125 16.6072 61.3707 20.2327 63.279 23.4263V23.4398Z" stroke="url(#paint21_linear_6188_252)" stroke-miterlimit="10"/>
<path d="M21.9075 39.2014C22.3575 40.029 23.2667 40.6992 24.725 41.104C26.0617 41.4774 27.4659 41.5089 28.8252 41.7743C30.1844 42.0396 31.5796 42.6019 32.3718 43.7354C33.0379 44.6845 33.1864 45.89 33.479 47.0145C34.6492 51.5081 39.8521 49.0926 43.1061 48.3415C43.8758 48.166 44.6589 48.0131 45.4421 48.0716C46.8553 48.175 48.102 48.9487 49.1192 49.8708C50.1319 50.7929 50.978 51.8724 51.9952 52.7901C53.5255 54.1665 55.4923 55.165 57.6122 55.336C60.9202 55.6014 63.4947 53.7167 64.6694 50.8334C65.6821 48.3504 64.0888 45.8135 63.4137 43.5015C62.5315 40.4923 64.1428 39.2014 65.9701 36.8848C68.459 33.7227 68.369 28.9907 65.7631 26.058C64.6784 24.839 63.2336 23.9169 62.3425 22.563C60.3801 19.5807 62.2795 16.1712 60.9382 13.117C59.8085 10.5486 57.0406 9.06422 54.1691 8.91128C51.0545 8.74935 48.6871 10.0268 46.3827 11.862C44.2403 13.5713 41.3733 13.8952 38.7089 13.8502C35.9319 13.8007 33.1324 13.3914 30.3914 13.8592C27.655 14.3225 24.878 15.9058 23.9913 18.5417C22.5736 22.7609 26.5883 26.3368 25.3236 30.4121C24.878 31.847 23.8293 33.0435 22.9291 34.2805C21.6554 36.0347 21.1603 37.8429 21.9075 39.2148V39.2014Z" stroke="url(#paint22_linear_6188_252)" stroke-miterlimit="10"/>
</g>
<defs>
<linearGradient id="paint0_linear_6188_252" x1="1.76204" y1="0.999985" x2="96.3599" y2="20.9846" gradientUnits="userSpaceOnUse">
<stop stop-color="#8258C8"/>
<stop offset="0.315" stop-color="#6766C8"/>
<stop offset="1" stop-color="#2C84C8"/>
</linearGradient>
<linearGradient id="paint1_linear_6188_252" x1="2.73637" y1="1.48534" x2="95.1113" y2="21.0161" gradientUnits="userSpaceOnUse">
<stop stop-color="#8258C8"/>
<stop offset="0.315" stop-color="#6766C8"/>
<stop offset="1" stop-color="#2C84C8"/>
</linearGradient>
<linearGradient id="paint2_linear_6188_252" x1="3.70122" y1="1.96678" x2="93.8892" y2="21.0474" gradientUnits="userSpaceOnUse">
<stop stop-color="#8258C8"/>
<stop offset="0.315" stop-color="#6766C8"/>
<stop offset="1" stop-color="#2C84C8"/>
</linearGradient>
<linearGradient id="paint3_linear_6188_252" x1="4.64915" y1="2.42967" x2="92.732" y2="21.0817" gradientUnits="userSpaceOnUse">
<stop stop-color="#8258C8"/>
<stop offset="0.315" stop-color="#6766C8"/>
<stop offset="1" stop-color="#2C84C8"/>
</linearGradient>
<linearGradient id="paint4_linear_6188_252" x1="5.59368" y1="2.90135" x2="91.6306" y2="21.141" gradientUnits="userSpaceOnUse">
<stop stop-color="#8258C8"/>
<stop offset="0.315" stop-color="#6766C8"/>
<stop offset="1" stop-color="#2C84C8"/>
</linearGradient>
<linearGradient id="paint5_linear_6188_252" x1="6.51916" y1="3.33885" x2="90.5712" y2="21.1782" gradientUnits="userSpaceOnUse">
<stop stop-color="#8258C8"/>
<stop offset="0.315" stop-color="#6766C8"/>
<stop offset="1" stop-color="#2C84C8"/>
</linearGradient>
<linearGradient id="paint6_linear_6188_252" x1="7.45649" y1="3.79882" x2="89.5413" y2="21.2411" gradientUnits="userSpaceOnUse">
<stop stop-color="#8258C8"/>
<stop offset="0.315" stop-color="#6766C8"/>
<stop offset="1" stop-color="#2C84C8"/>
</linearGradient>
<linearGradient id="paint7_linear_6188_252" x1="8.38824" y1="4.21971" x2="88.5417" y2="21.2658" gradientUnits="userSpaceOnUse">
<stop stop-color="#8258C8"/>
<stop offset="0.315" stop-color="#6766C8"/>
<stop offset="1" stop-color="#2C84C8"/>
</linearGradient>
<linearGradient id="paint8_linear_6188_252" x1="9.30078" y1="4.64647" x2="87.5608" y2="21.3088" gradientUnits="userSpaceOnUse">
<stop stop-color="#8258C8"/>
<stop offset="0.315" stop-color="#6766C8"/>
<stop offset="1" stop-color="#2C84C8"/>
</linearGradient>
<linearGradient id="paint9_linear_6188_252" x1="10.2252" y1="5.05272" x2="86.613" y2="21.3297" gradientUnits="userSpaceOnUse">
<stop stop-color="#8258C8"/>
<stop offset="0.315" stop-color="#6766C8"/>
<stop offset="1" stop-color="#2C84C8"/>
</linearGradient>
<linearGradient id="paint10_linear_6188_252" x1="11.1361" y1="5.45702" x2="85.6724" y2="21.352" gradientUnits="userSpaceOnUse">
<stop stop-color="#8258C8"/>
<stop offset="0.315" stop-color="#6766C8"/>
<stop offset="1" stop-color="#2C84C8"/>
</linearGradient>
<linearGradient id="paint11_linear_6188_252" x1="12.0433" y1="5.83104" x2="84.7566" y2="21.3469" gradientUnits="userSpaceOnUse">
<stop stop-color="#8258C8"/>
<stop offset="0.315" stop-color="#6766C8"/>
<stop offset="1" stop-color="#2C84C8"/>
</linearGradient>
<linearGradient id="paint12_linear_6188_252" x1="12.9525" y1="6.21288" x2="83.8468" y2="21.3492" gradientUnits="userSpaceOnUse">
<stop stop-color="#8258C8"/>
<stop offset="0.315" stop-color="#6766C8"/>
<stop offset="1" stop-color="#2C84C8"/>
</linearGradient>
<linearGradient id="paint13_linear_6188_252" x1="13.8579" y1="6.57714" x2="82.9498" y2="21.3311" gradientUnits="userSpaceOnUse">
<stop stop-color="#8258C8"/>
<stop offset="0.315" stop-color="#6766C8"/>
<stop offset="1" stop-color="#2C84C8"/>
</linearGradient>
<linearGradient id="paint14_linear_6188_252" x1="14.7751" y1="6.91112" x2="82.078" y2="21.2804" gradientUnits="userSpaceOnUse">
<stop stop-color="#8258C8"/>
<stop offset="0.315" stop-color="#6766C8"/>
<stop offset="1" stop-color="#2C84C8"/>
</linearGradient>
<linearGradient id="paint15_linear_6188_252" x1="15.6806" y1="7.23632" x2="81.2019" y2="21.2199" gradientUnits="userSpaceOnUse">
<stop stop-color="#8258C8"/>
<stop offset="0.315" stop-color="#6766C8"/>
<stop offset="1" stop-color="#2C84C8"/>
</linearGradient>
<linearGradient id="paint16_linear_6188_252" x1="16.5882" y1="7.53222" x2="80.3376" y2="21.1234" gradientUnits="userSpaceOnUse">
<stop stop-color="#8258C8"/>
<stop offset="0.315" stop-color="#6766C8"/>
<stop offset="1" stop-color="#2C84C8"/>
</linearGradient>
<linearGradient id="paint17_linear_6188_252" x1="17.488" y1="7.82226" x2="79.4835" y2="21.0272" gradientUnits="userSpaceOnUse">
<stop stop-color="#8258C8"/>
<stop offset="0.315" stop-color="#6766C8"/>
<stop offset="1" stop-color="#2C84C8"/>
</linearGradient>
<linearGradient id="paint18_linear_6188_252" x1="18.3821" y1="8.0869" x2="78.6333" y2="20.9032" gradientUnits="userSpaceOnUse">
<stop stop-color="#8258C8"/>
<stop offset="0.315" stop-color="#6766C8"/>
<stop offset="1" stop-color="#2C84C8"/>
</linearGradient>
<linearGradient id="paint19_linear_6188_252" x1="19.2822" y1="8.31737" x2="77.8045" y2="20.7388" gradientUnits="userSpaceOnUse">
<stop stop-color="#8258C8"/>
<stop offset="0.315" stop-color="#6766C8"/>
<stop offset="1" stop-color="#2C84C8"/>
</linearGradient>
<linearGradient id="paint20_linear_6188_252" x1="20.1976" y1="8.52538" x2="76.9716" y2="20.5377" gradientUnits="userSpaceOnUse">
<stop stop-color="#8258C8"/>
<stop offset="0.315" stop-color="#6766C8"/>
<stop offset="1" stop-color="#2C84C8"/>
</linearGradient>
<linearGradient id="paint21_linear_6188_252" x1="21.088" y1="8.71776" x2="76.1517" y2="20.3338" gradientUnits="userSpaceOnUse">
<stop stop-color="#8258C8"/>
<stop offset="0.315" stop-color="#6766C8"/>
<stop offset="1" stop-color="#2C84C8"/>
</linearGradient>
<linearGradient id="paint22_linear_6188_252" x1="21.9862" y1="8.89745" x2="75.3361" y2="20.1102" gradientUnits="userSpaceOnUse">
<stop stop-color="#8258C8"/>
<stop offset="0.315" stop-color="#6766C8"/>
<stop offset="1" stop-color="#2C84C8"/>
</linearGradient>
</defs>
</svg>
