<svg width="80" height="91" viewBox="0 0 80 91" fill="none" xmlns="http://www.w3.org/2000/svg">
<path d="M24.4783 24.2215C30.6121 20.6815 32.7139 12.8416 29.173 6.71074C25.632 0.579865 17.7892 -1.52047 11.6554 2.01966C5.5216 5.55965 3.41968 13.3995 6.96067 19.5304C10.5015 25.6613 18.3445 27.7616 24.4783 24.2215Z" stroke="url(#paint0_linear_11_43)" stroke-width="0.6" stroke-miterlimit="10"/>
<path d="M25.9125 26.7063C32.4238 22.9484 34.6551 14.6264 30.8964 8.11855C27.1377 1.61061 18.8124 -0.618715 12.3012 3.13918C5.79004 6.89707 3.55867 15.2191 7.31724 21.7271C11.0759 28.2349 19.4013 30.4642 25.9125 26.7063Z" stroke="url(#paint1_linear_11_43)" stroke-width="0.6" stroke-miterlimit="10"/>
<path d="M27.403 29.2851C34.346 25.2782 36.7255 16.4047 32.7178 9.46561C28.7101 2.52668 19.8328 0.149712 12.89 4.15679C5.94717 8.16386 3.5677 17.0374 7.57539 23.9763C11.5831 30.9154 20.4602 33.2922 27.403 29.2851Z" stroke="url(#paint2_linear_11_43)" stroke-width="0.6" stroke-miterlimit="10"/>
<path d="M28.9639 31.9366C36.3792 27.6416 38.9081 18.1519 34.6123 10.7411C30.3166 3.33031 20.8229 0.804609 13.4078 5.0997C5.99251 9.39492 3.46356 18.8845 7.75937 26.2953C12.055 33.7062 21.5486 36.2319 28.9639 31.9366Z" stroke="url(#paint3_linear_11_43)" stroke-width="0.6" stroke-miterlimit="10"/>
<path d="M30.5183 34.6809C38.4556 30.1 41.1762 19.956 36.5949 12.0238C32.0136 4.09158 21.8652 1.37487 13.9279 5.95578C5.99064 10.5367 3.27007 20.6807 7.85139 28.6129C12.4327 36.5451 22.5811 39.2618 30.5183 34.6809Z" stroke="url(#paint4_linear_11_43)" stroke-width="0.6" stroke-miterlimit="10"/>
<path d="M32.1284 37.4687C40.6104 32.5734 43.5168 21.7318 38.6199 13.2532C33.7232 4.77471 22.8774 1.87002 14.3954 6.76528C5.91347 11.6605 3.00718 22.5021 7.90408 30.9806C12.8008 39.4592 23.6465 42.3639 32.1284 37.4687Z" stroke="url(#paint5_linear_11_43)" stroke-width="0.6" stroke-miterlimit="10"/>
<path d="M33.7668 40.3047C42.8205 35.0793 45.923 23.5073 40.6964 14.4576C35.4696 5.40807 23.8931 2.30784 14.8393 7.53311C5.78564 12.7585 2.6832 24.3305 7.9098 33.3802C13.1365 42.4298 24.7131 45.53 33.7668 40.3047Z" stroke="url(#paint6_linear_11_43)" stroke-width="0.6" stroke-miterlimit="10"/>
<path d="M35.4246 43.1745C45.0704 37.6075 48.376 25.2789 42.8077 15.6379C37.2395 5.99684 24.906 2.69422 15.2601 8.26129C5.61425 13.8283 2.30866 26.1569 7.87691 35.7979C13.4452 45.439 25.7786 48.7416 35.4246 43.1745Z" stroke="url(#paint7_linear_11_43)" stroke-width="0.6" stroke-miterlimit="10"/>
<path d="M37.1002 46.0756C47.3541 40.1577 50.8671 27.0505 44.9469 16.8001C39.0265 6.54947 25.915 3.03733 15.6611 8.95525C5.40717 14.8732 1.89418 27.9802 7.81451 38.2308C13.7347 48.4812 26.8464 51.9935 37.1002 46.0756Z" stroke="url(#paint8_linear_11_43)" stroke-width="0.6" stroke-miterlimit="10"/>
<path d="M38.7903 49.0023C49.6679 42.7244 53.3949 28.8204 47.1148 17.947C40.8347 7.07339 26.9256 3.34789 16.048 9.62586C5.17039 15.9037 1.4434 29.8078 7.7235 40.6813C14.0036 51.5547 27.9127 55.2802 38.7903 49.0023Z" stroke="url(#paint9_linear_11_43)" stroke-width="0.6" stroke-miterlimit="10"/>
<path d="M40.4919 51.9492C52.0045 45.3048 55.9493 30.5894 49.3028 19.0816C42.6565 7.57374 27.9355 3.6313 16.4229 10.2756C4.91016 16.9201 0.96533 31.6355 7.61179 43.1433C14.2582 54.6512 28.9791 58.5936 40.4919 51.9492Z" stroke="url(#paint10_linear_11_43)" stroke-width="0.6" stroke-miterlimit="10"/>
<path d="M42.2083 54.9206C54.3673 47.9032 58.5339 32.362 51.5145 20.2087C44.4952 8.05516 28.948 3.89167 16.7891 10.9092C4.62994 17.9266 0.463427 33.4678 7.48269 45.6212C14.5021 57.7747 30.0492 61.9382 42.2083 54.9206Z" stroke="url(#paint11_linear_11_43)" stroke-width="0.6" stroke-miterlimit="10"/>
<path d="M57.1438 37.8154C55.4302 52.5049 42.1247 63.0233 27.4325 61.3065C12.7362 59.592 2.21448 46.2965 3.93468 31.6088C5.64828 16.9193 18.9538 6.40082 33.646 8.11764C48.3423 9.83214 58.864 23.1277 57.1438 37.8154Z" stroke="url(#paint12_linear_11_43)" stroke-width="0.6" stroke-miterlimit="10"/>
<path d="M59.4742 40.4055C57.3204 55.8067 43.084 66.5464 27.6781 64.3968C12.2722 62.2472 1.52517 48.0135 3.67898 32.6121C5.83279 17.2109 20.069 6.47142 35.4749 8.62102C50.8832 10.7747 61.6278 25.0043 59.4742 40.4055Z" stroke="url(#paint13_linear_11_43)" stroke-width="0.6" stroke-miterlimit="10"/>
<path d="M61.8075 42.9986C59.2137 59.1117 44.0449 70.0788 27.9246 67.4859C11.8067 64.8971 0.834881 49.7358 3.42642 33.6188C6.0203 17.5058 21.1891 6.53868 37.3093 9.13148C53.4296 11.7244 64.3991 26.8815 61.8075 42.9986Z" stroke="url(#paint14_linear_11_43)" stroke-width="0.6" stroke-miterlimit="10"/>
<path d="M64.1388 45.5884C61.1072 62.4172 45.0052 73.6014 28.1712 70.5757C11.3372 67.5499 0.146661 51.4524 3.17402 34.6259C6.20563 17.7971 22.3077 6.61288 39.1417 9.6386C55.9756 12.6643 67.1663 28.7618 64.1388 45.5884Z" stroke="url(#paint15_linear_11_43)" stroke-width="0.6" stroke-miterlimit="10"/>
<path d="M66.4717 48.1823C63.0041 65.7205 45.9654 77.1347 28.4195 73.6698C10.8735 70.2048 -0.544263 53.1757 2.92742 35.635C6.39498 18.0968 23.4337 6.68264 40.9797 10.1476C58.5256 13.6125 69.9434 30.6417 66.4717 48.1823Z" stroke="url(#paint16_linear_11_43)" stroke-width="0.6" stroke-miterlimit="10"/>
<path d="M68.7965 50.7744C64.8912 69.0285 46.9195 80.6597 28.6574 76.7579C10.3952 72.8561 -1.23887 54.8947 2.66643 36.6405C6.57159 18.3865 24.5434 6.75536 42.8056 10.6571C61.0677 14.5589 72.7018 32.5204 68.7965 50.7744Z" stroke="url(#paint17_linear_11_43)" stroke-width="0.6" stroke-miterlimit="10"/>
<path d="M71.1294 53.3684C66.7841 72.3343 47.8797 84.193 28.9057 79.852C9.93154 75.5111 -1.9256 56.6155 2.41744 37.6456C6.7628 18.6797 25.6629 6.8233 44.6412 11.162C63.6153 15.5029 75.4766 34.3961 71.1312 53.3619L71.1294 53.3684Z" stroke="url(#paint18_linear_11_43)" stroke-width="0.6" stroke-miterlimit="10"/>
<path d="M73.4612 55.9573C68.6781 75.6389 48.8429 87.7188 29.1568 82.9385C9.46666 78.1607 -2.61765 58.3337 2.16545 38.6519C6.94855 18.9701 26.7837 6.89033 46.4699 11.6705C66.1558 16.4507 78.2402 36.2778 73.4612 55.9573Z" stroke="url(#paint19_linear_11_43)" stroke-width="0.6" stroke-miterlimit="10"/>
<path d="M75.7942 58.5508C70.5752 78.942 49.8051 91.2453 29.403 86.0283C9.00078 80.8111 -3.30644 60.05 1.91673 39.6566C7.13591 19.2655 27.9059 6.9622 48.3081 12.1792C68.7102 17.3963 81.0174 38.1574 75.7942 58.5508Z" stroke="url(#paint20_linear_11_43)" stroke-width="0.6" stroke-miterlimit="10"/>
<path d="M78.1197 61.1436C72.4629 82.2506 50.7581 94.7773 29.6438 89.121C8.52962 83.4648 -3.99818 61.7738 1.6586 40.6668C7.31539 19.5598 29.0204 7.03291 50.1345 12.6893C71.2487 18.3456 83.7765 40.0365 78.1197 61.1436Z" stroke="url(#paint21_linear_11_43)" stroke-width="0.6" stroke-miterlimit="10"/>
<defs>
<linearGradient id="paint0_linear_11_43" x1="0.755657" y1="8.31025" x2="29.5058" y2="-1.07296" gradientUnits="userSpaceOnUse">
<stop stop-color="#8258C8"/>
<stop offset="1" stop-color="#2C84C8"/>
</linearGradient>
<linearGradient id="paint1_linear_11_43" x1="0.730761" y1="9.81699" x2="31.25" y2="-0.143452" gradientUnits="userSpaceOnUse">
<stop stop-color="#8258C8"/>
<stop offset="1" stop-color="#2C84C8"/>
</linearGradient>
<linearGradient id="paint2_linear_11_43" x1="0.552419" y1="11.2773" x2="33.095" y2="0.656791" gradientUnits="userSpaceOnUse">
<stop stop-color="#8258C8"/>
<stop offset="1" stop-color="#2C84C8"/>
</linearGradient>
<linearGradient id="paint3_linear_11_43" x1="0.230717" y1="12.7322" x2="35.0012" y2="1.32463" gradientUnits="userSpaceOnUse">
<stop stop-color="#8258C8"/>
<stop offset="1" stop-color="#2C84C8"/>
</linearGradient>
<linearGradient id="paint4_linear_11_43" x1="-0.176627" y1="14.0962" x2="37.027" y2="1.9552" gradientUnits="userSpaceOnUse">
<stop stop-color="#8258C8"/>
<stop offset="1" stop-color="#2C84C8"/>
</linearGradient>
<linearGradient id="paint5_linear_11_43" x1="-0.676982" y1="15.4643" x2="39.0794" y2="2.48822" gradientUnits="userSpaceOnUse">
<stop stop-color="#8258C8"/>
<stop offset="1" stop-color="#2C84C8"/>
</linearGradient>
<linearGradient id="paint6_linear_11_43" x1="-1.24928" y1="16.8185" x2="41.1875" y2="2.96814" gradientUnits="userSpaceOnUse">
<stop stop-color="#8258C8"/>
<stop offset="1" stop-color="#2C84C8"/>
</linearGradient>
<linearGradient id="paint7_linear_11_43" x1="-1.88063" y1="18.154" x2="43.3314" y2="3.39825" gradientUnits="userSpaceOnUse">
<stop stop-color="#8258C8"/>
<stop offset="1" stop-color="#2C84C8"/>
</linearGradient>
<linearGradient id="paint8_linear_11_43" x1="-2.56004" y1="19.4714" x2="45.5015" y2="3.78384" gradientUnits="userSpaceOnUse">
<stop stop-color="#8258C8"/>
<stop offset="1" stop-color="#2C84C8"/>
</linearGradient>
<linearGradient id="paint9_linear_11_43" x1="-3.2815" y1="20.7817" x2="47.7037" y2="4.14042" gradientUnits="userSpaceOnUse">
<stop stop-color="#8258C8"/>
<stop offset="1" stop-color="#2C84C8"/>
</linearGradient>
<linearGradient id="paint10_linear_11_43" x1="-4.0352" y1="22.0829" x2="49.9269" y2="4.47054" gradientUnits="userSpaceOnUse">
<stop stop-color="#8258C8"/>
<stop offset="1" stop-color="#2C84C8"/>
</linearGradient>
<linearGradient id="paint11_linear_11_43" x1="-4.81767" y1="23.3793" x2="52.1741" y2="4.77856" gradientUnits="userSpaceOnUse">
<stop stop-color="#8258C8"/>
<stop offset="1" stop-color="#2C84C8"/>
</linearGradient>
<linearGradient id="paint12_linear_11_43" x1="-5.62397" y1="24.6635" x2="54.4354" y2="5.06172" gradientUnits="userSpaceOnUse">
<stop stop-color="#8258C8"/>
<stop offset="1" stop-color="#2C84C8"/>
</linearGradient>
<linearGradient id="paint13_linear_11_43" x1="-6.45028" y1="25.9415" x2="56.7029" y2="5.32911" gradientUnits="userSpaceOnUse">
<stop stop-color="#8258C8"/>
<stop offset="1" stop-color="#2C84C8"/>
</linearGradient>
<linearGradient id="paint14_linear_11_43" x1="-7.29348" y1="27.2176" x2="58.9876" y2="5.58424" gradientUnits="userSpaceOnUse">
<stop stop-color="#8258C8"/>
<stop offset="1" stop-color="#2C84C8"/>
</linearGradient>
<linearGradient id="paint15_linear_11_43" x1="-8.15177" y1="28.4894" x2="61.282" y2="5.82764" gradientUnits="userSpaceOnUse">
<stop stop-color="#8258C8"/>
<stop offset="1" stop-color="#2C84C8"/>
</linearGradient>
<linearGradient id="paint16_linear_11_43" x1="-9.02141" y1="29.7613" x2="63.5914" y2="6.06331" gradientUnits="userSpaceOnUse">
<stop stop-color="#8258C8"/>
<stop offset="1" stop-color="#2C84C8"/>
</linearGradient>
<linearGradient id="paint17_linear_11_43" x1="-9.91317" y1="31.0252" x2="65.8939" y2="6.28435" gradientUnits="userSpaceOnUse">
<stop stop-color="#8258C8"/>
<stop offset="1" stop-color="#2C84C8"/>
</linearGradient>
<linearGradient id="paint18_linear_11_43" x1="-10.8056" y1="32.286" x2="68.2156" y2="6.49611" gradientUnits="userSpaceOnUse">
<stop stop-color="#8258C8"/>
<stop offset="1" stop-color="#2C84C8"/>
</linearGradient>
<linearGradient id="paint19_linear_11_43" x1="-11.7086" y1="33.543" x2="70.5313" y2="6.70049" gradientUnits="userSpaceOnUse">
<stop stop-color="#8258C8"/>
<stop offset="1" stop-color="#2C84C8"/>
</linearGradient>
<linearGradient id="paint20_linear_11_43" x1="-12.6167" y1="34.8009" x2="72.8673" y2="6.9012" gradientUnits="userSpaceOnUse">
<stop stop-color="#8258C8"/>
<stop offset="1" stop-color="#2C84C8"/>
</linearGradient>
<linearGradient id="paint21_linear_11_43" x1="-13.5399" y1="36.0568" x2="75.1919" y2="7.09566" gradientUnits="userSpaceOnUse">
<stop stop-color="#8258C8"/>
<stop offset="1" stop-color="#2C84C8"/>
</linearGradient>
</defs>
</svg>
