<svg width="20" height="20" viewBox="0 0 20 20" fill="none" xmlns="http://www.w3.org/2000/svg">
<path d="M4.19995 8.50391C2.49995 8.50391 1.3001 8.30391 0.600098 7.50391C9.76324e-05 6.80391 0 5.70371 0 4.30371H0.800049H0C0 1.40371 0.200049 0.00390625 4.30005 0.00390625C8.40005 0.00390625 8.6001 1.40371 8.6001 4.30371C8.6001 5.70371 8.6 6.80391 8 7.50391C7.2 8.30391 5.89995 8.50391 4.19995 8.50391ZM4.19995 1.50391C1.39995 1.50391 1.3999 1.70371 1.3999 4.30371C1.2999 5.10371 1.39995 5.80391 1.69995 6.50391C1.99995 6.80391 2.79995 7.00391 4.19995 7.00391C5.59995 7.00391 6.39995 6.80391 6.69995 6.50391C6.99995 5.80391 7.1 5.00371 7 4.30371C7 1.70371 6.99995 1.50391 4.19995 1.50391Z" fill="#1F1F1F"/>
<path d="M15.2 8.50391C13.5 8.50391 12.3001 8.30391 11.6001 7.50391C11.0001 6.80391 11 5.70371 11 4.30371H11.8H11C11 1.40371 11.2 0.00390625 15.3 0.00390625C19.4 0.00390625 19.6001 1.40371 19.6001 4.30371C19.6001 5.70371 19.6 6.80391 19 7.50391C18.2 8.30391 16.9 8.50391 15.2 8.50391ZM15.2 1.50391C12.4 1.50391 12.3999 1.70371 12.3999 4.30371C12.2999 5.10371 12.4 5.80391 12.7 6.50391C13 6.80391 13.8 7.00391 15.2 7.00391C16.6 7.00391 17.4 6.80391 17.7 6.50391C18 5.80391 18.1 5.00371 18 4.30371C18 1.70371 18 1.50391 15.2 1.50391Z" fill="#1F1F1F"/>
<path d="M4.19995 19.5039C2.49995 19.5039 1.3001 19.3039 0.600098 18.5039C9.76324e-05 17.8039 0 16.7037 0 15.3037H0.800049H0C0 12.4037 0.200049 11.0039 4.30005 11.0039C8.40005 11.0039 8.6001 12.4037 8.6001 15.3037C8.6001 16.7037 8.6 17.8039 8 18.5039C7.2 19.3039 5.89995 19.5039 4.19995 19.5039ZM4.19995 12.5039C1.39995 12.5039 1.3999 12.7037 1.3999 15.3037C1.2999 16.1037 1.39995 16.8039 1.69995 17.5039C1.99995 17.8039 2.79995 18.0039 4.19995 18.0039C5.59995 18.0039 6.39995 17.8039 6.69995 17.5039C6.99995 16.8039 7.1 16.0037 7 15.3037C7 12.7037 6.99995 12.5039 4.19995 12.5039Z" fill="#1F1F1F"/>
<path d="M15.2 19.5039C13.5 19.5039 12.3001 19.3039 11.6001 18.5039C11.0001 17.8039 11 16.7037 11 15.3037H11.8H11C11 12.4037 11.2 11.0039 15.3 11.0039C19.4 11.0039 19.6001 12.4037 19.6001 15.3037C19.6001 16.7037 19.6 17.8039 19 18.5039C18.2 19.3039 16.9 19.5039 15.2 19.5039ZM15.2 12.5039C12.4 12.5039 12.3999 12.7037 12.3999 15.3037C12.2999 16.1037 12.4 16.8039 12.7 17.5039C13 17.8039 13.8 18.0039 15.2 18.0039C16.6 18.0039 17.4 17.8039 17.7 17.5039C18 16.8039 18.1 16.0037 18 15.3037C18 12.7037 18 12.5039 15.2 12.5039Z" fill="#1F1F1F"/>
<path d="M4.19995 8.5C2.49995 8.5 1.3001 8.3 0.600098 7.5C9.76324e-05 6.8 0 5.6998 0 4.2998C0 1.3998 0.200049 0 4.30005 0C8.40005 0 8.6001 1.3998 8.6001 4.2998C8.6001 5.6998 8.6 6.8 8 7.5C7.2 8.3 5.89995 8.5 4.19995 8.5Z" fill="#1F1F1F"/>
<path d="M15.2 8.5C13.5 8.5 12.3001 8.3 11.6001 7.5C11.0001 6.8 11 5.6998 11 4.2998C11 1.3998 11.2 0 15.3 0C19.4 0 19.6001 1.3998 19.6001 4.2998C19.6001 5.6998 19.6 6.8 19 7.5C18.2 8.3 16.9 8.5 15.2 8.5Z" fill="#1F1F1F"/>
<path d="M15.2 19.5C13.5 19.5 12.3001 19.3 11.6001 18.5C11.0001 17.8 11 16.6998 11 15.2998C11 12.3998 11.2 11 15.3 11C19.4 11 19.6001 12.3998 19.6001 15.2998C19.6001 16.6998 19.6 17.8 19 18.5C18.2 19.3 16.9 19.5 15.2 19.5Z" fill="#1F1F1F"/>
<path d="M4.19995 19.5C2.49995 19.5 1.3001 19.3 0.600098 18.5C9.76324e-05 17.8 0 16.6998 0 15.2998C0 12.3998 0.200049 11 4.30005 11C8.40005 11 8.6001 12.3998 8.6001 15.2998C8.6001 16.6998 8.6 17.8 8 18.5C7.2 19.3 5.89995 19.5 4.19995 19.5Z" fill="#1F1F1F"/>
</svg>
