<svg width="74" height="73" viewBox="0 0 74 73" fill="none" xmlns="http://www.w3.org/2000/svg">
<g clip-path="url(#clip0_4334_352)">
<path d="M35.9166 3.91455C35.7962 3.91455 35.6759 3.88166 35.5774 3.80491L32.1531 1.4147C31.8796 1.22831 31.814 0.855525 32 0.581419C32.1859 0.307313 32.5688 0.241527 32.8314 0.42792L36.2557 2.81813C36.5292 3.00452 36.5949 3.3773 36.4089 3.65141C36.2885 3.81587 36.1026 3.91455 35.9166 3.91455Z" fill="url(#paint0_linear_4334_352)"/>
<path d="M36.3218 4.45181C36.1577 4.45181 35.9827 4.38603 35.8623 4.24349C35.6435 3.99131 35.6763 3.60756 35.928 3.39924L39.3085 0.482751C39.5601 0.263466 39.943 0.296359 40.1509 0.548537C40.3697 0.800715 40.3369 1.18446 40.0853 1.39278L36.7047 4.30928C36.5953 4.40795 36.4531 4.45181 36.3109 4.45181H36.3218Z" fill="url(#paint1_linear_4334_352)"/>
<path d="M37.8748 73C37.5794 73 37.3387 72.7588 37.3278 72.4627L35.6211 0.559177C35.6211 0.252178 35.8618 0.0109643 36.1572 0C36.4854 0 36.7042 0.230249 36.7151 0.537248L38.4327 72.4408C38.4327 72.7478 38.1921 72.989 37.8967 73H37.8857H37.8748Z" fill="url(#paint2_linear_4334_352)"/>
<path d="M73.453 35.6662L0.59082 37.3328L73.453 35.6553V35.6662Z" fill="url(#paint3_linear_4334_352)"/>
<path d="M0.590959 37.8814C0.295572 37.8814 0.0548856 37.6402 0.0439453 37.3441C0.0439453 37.0371 0.284631 36.7959 0.580019 36.785L73.4422 35.1074C73.7376 35.1074 73.9892 35.3377 74.0002 35.6447C74.0002 35.9517 73.7595 36.1929 73.4641 36.2038L0.601899 37.8814H0.590959Z" fill="url(#paint4_linear_4334_352)"/>
<path d="M63.3884 61.3341L10.6562 11.666L63.3993 61.3231L63.3884 61.3341Z" fill="url(#paint5_linear_4334_352)"/>
<path d="M63.3877 61.8825C63.2564 61.8825 63.1142 61.8386 63.0157 61.729L10.2727 12.0719C10.1633 11.9622 10.0977 11.8197 10.0977 11.6772C10.0977 11.5456 10.1414 11.403 10.2508 11.3044C10.4587 11.0851 10.8088 11.0741 11.0166 11.2824L63.7597 60.9395C63.8691 61.0492 63.9347 61.1917 63.9347 61.3343C63.9347 61.4658 63.891 61.6084 63.7816 61.707C63.6722 61.8167 63.5299 61.8825 63.3877 61.8825Z" fill="url(#paint6_linear_4334_352)"/>
<path d="M11.8703 63.0666C11.739 63.0666 11.5967 63.0117 11.4873 62.9131C11.3779 62.8034 11.3232 62.6609 11.3232 62.5183C11.3232 62.3758 11.3779 62.2442 11.4764 62.1346L61.7798 10.1092C61.9876 9.88994 62.3377 9.88993 62.5456 10.0983C62.655 10.2079 62.7097 10.3504 62.7097 10.493C62.7097 10.6355 62.655 10.7671 62.5565 10.8767L12.2532 62.9021C12.1438 63.0117 12.0015 63.0666 11.8593 63.0666H11.8703Z" fill="url(#paint7_linear_4334_352)"/>
<path d="M13.8606 65.8847H13.8387C13.5105 65.8737 13.2479 65.5887 13.2698 65.2597L13.4668 60.7973C13.4777 60.4683 13.7403 60.1833 14.0904 60.2271C14.4186 60.2381 14.6811 60.5232 14.6592 60.8521L14.4623 65.3145C14.4514 65.6325 14.1779 65.8847 13.8606 65.8847Z" fill="url(#paint8_linear_4334_352)"/>
<path d="M14.0909 60.7642H14.069L8.64266 60.5449C8.31446 60.534 8.05189 60.2489 8.06283 59.92C8.07377 59.591 8.35822 59.3389 8.68643 59.3389L14.1128 59.5582C14.441 59.5691 14.7036 59.8542 14.6926 60.1831C14.6817 60.512 14.4082 60.7642 14.0909 60.7642Z" fill="url(#paint9_linear_4334_352)"/>
<path d="M41.43 72.9121C41.2659 72.9121 41.1128 72.8463 40.9924 72.7257L37.9401 69.4802C37.7104 69.239 37.7213 68.8553 37.962 68.625C38.2027 68.3948 38.5856 68.4057 38.8153 68.647L41.8786 71.8924C42.1083 72.1336 42.0974 72.5173 41.8567 72.7476C41.7364 72.8572 41.5942 72.9121 41.441 72.9121H41.43Z" fill="url(#paint10_linear_4334_352)"/>
<path d="M33.991 72.9342C33.8378 72.9342 33.6737 72.8684 33.5534 72.7478C33.3236 72.5066 33.3346 72.1229 33.5753 71.8926L37.5138 68.1319C37.7544 67.9016 38.1374 67.9126 38.3671 68.1538C38.5968 68.395 38.5859 68.7788 38.3452 69.009L34.4067 72.7698C34.2864 72.8794 34.1442 72.9342 33.991 72.9342Z" fill="url(#paint11_linear_4334_352)"/>
<path d="M61.1671 58.7901C60.8389 58.7901 60.5654 58.5159 60.5654 58.187C60.5654 57.8581 60.828 57.584 61.1671 57.584H65.6198C65.948 57.584 66.2215 57.8581 66.2215 58.187C66.2215 58.5159 65.959 58.7901 65.6198 58.7901H61.1671Z" fill="url(#paint12_linear_4334_352)"/>
<path d="M60.5437 64.2283C60.2155 64.2283 59.942 63.9652 59.942 63.6363L59.9092 58.187C59.9092 57.8581 60.1717 57.584 60.5 57.584C60.8282 57.584 61.1017 57.8471 61.1017 58.1761L61.1345 63.6253C61.1345 63.9542 60.8719 64.2283 60.5437 64.2283Z" fill="url(#paint13_linear_4334_352)"/>
<path d="M1.28004 42.4428C1.17064 42.4428 1.07217 42.4099 0.973711 42.3551C0.689264 42.1797 0.590802 41.8179 0.765846 41.5328L3.35869 37.2019C3.53373 36.9168 3.9057 36.8291 4.17921 36.9936C4.46366 37.169 4.55118 37.5308 4.38708 37.8159L1.79423 42.1358C1.68483 42.3222 1.4879 42.4319 1.28004 42.4319V42.4428Z" fill="url(#paint14_linear_4334_352)"/>
<path d="M4.35483 37.6624C4.20167 37.6624 4.03757 37.5966 3.91722 37.476L0.16471 33.5398C-0.065036 33.2986 -0.0540958 32.9149 0.18659 32.6846C0.427276 32.4544 0.810186 32.4653 1.03993 32.7065L4.79244 36.6427C5.02219 36.8839 5.01125 37.2677 4.77056 37.4979C4.65022 37.6076 4.508 37.6624 4.35483 37.6624Z" fill="url(#paint15_linear_4334_352)"/>
<path d="M8.19449 14.8459C7.86628 14.8459 7.59277 14.5828 7.59277 14.2429C7.59277 13.914 7.85534 13.6399 8.19449 13.6399H12.6472V13.6289C12.9754 13.6289 13.2489 13.892 13.2489 14.2319C13.2489 14.5609 12.9863 14.835 12.6472 14.835H8.19449V14.8459Z" fill="url(#paint16_linear_4334_352)"/>
<path d="M13.3144 14.8348C12.9862 14.8348 12.7127 14.5716 12.7127 14.2427L12.6689 8.79346C12.6689 8.46454 12.9315 8.19043 13.2597 8.19043C13.5879 8.19043 13.8614 8.45357 13.8614 8.7825L13.9052 14.2317C13.9052 14.5607 13.6426 14.8348 13.3144 14.8348Z" fill="url(#paint17_linear_4334_352)"/>
<path d="M59.6906 12.8826C59.3624 12.8826 59.0889 12.6195 59.0889 12.2906L59.0342 7.78425C59.0342 7.45532 59.2967 7.18122 59.625 7.18122C59.986 7.14832 60.2267 7.44436 60.2376 7.77329L60.2923 12.2796C60.2923 12.6085 60.0297 12.8826 59.7015 12.8936L59.6906 12.8826Z" fill="url(#paint18_linear_4334_352)"/>
<path d="M59.6896 13.5518C59.3614 13.5518 59.0988 13.2887 59.0879 12.9597C59.0879 12.6308 59.3505 12.3567 59.6787 12.3457L65.116 12.2471C65.4442 12.2471 65.7177 12.5102 65.7286 12.8391C65.7286 13.1681 65.4661 13.4422 65.1379 13.4531L59.7005 13.5518H59.6896Z" fill="url(#paint19_linear_4334_352)"/>
<path d="M69.9515 35.5569C69.7984 35.5569 69.6343 35.4911 69.5248 35.3705C69.2951 35.1293 69.2951 34.7565 69.5248 34.5153L72.7085 31.3905C72.9492 31.1602 73.3321 31.1602 73.5618 31.3905C73.7916 31.6317 73.7916 32.0045 73.5618 32.2457L70.3782 35.3705C70.2578 35.4801 70.1047 35.5459 69.9625 35.5459L69.9515 35.5569Z" fill="url(#paint20_linear_4334_352)"/>
<path d="M73.2892 39.8991C73.136 39.8991 72.9829 39.8443 72.8625 39.7237L69.0444 35.8424C68.8146 35.6011 68.8146 35.2284 69.0444 34.9871C69.2851 34.7569 69.657 34.7569 69.8977 34.9871L73.7159 38.8685C73.9456 39.1097 73.9456 39.4825 73.7159 39.7237C73.5955 39.8443 73.4424 39.8991 73.2892 39.8991Z" fill="url(#paint21_linear_4334_352)"/>
<path d="M61.6709 46.3901C61.5943 46.3901 61.5286 46.3791 61.4521 46.3462L13.9056 27.6302C13.5993 27.5096 13.4461 27.1588 13.5665 26.8518C13.6868 26.5448 14.0369 26.3913 14.3432 26.5119L61.8787 45.2279C62.1851 45.3485 62.3382 45.6993 62.2179 46.0063C62.1194 46.2475 61.9006 46.3901 61.6599 46.3901H61.6709Z" fill="url(#paint22_linear_4334_352)"/>
<path d="M46.9009 60.4894C46.6712 60.4894 46.4524 60.3578 46.3539 60.1276L25.9394 13.2006C25.8081 12.8936 25.9394 12.5427 26.2457 12.4112C26.552 12.2796 26.9021 12.4112 27.0334 12.7182L47.4479 59.6452C47.5792 59.9522 47.4479 60.303 47.1416 60.4346C47.065 60.4675 46.9775 60.4894 46.9009 60.4894Z" fill="url(#paint23_linear_4334_352)"/>
<path d="M13.8829 47.8586C13.6531 47.8586 13.4343 47.727 13.3358 47.4968C13.2046 47.1898 13.3358 46.8389 13.6422 46.7074L60.4665 26.2481C60.7729 26.1165 61.123 26.2481 61.2542 26.5551C61.3855 26.8621 61.2542 27.2129 60.9479 27.3445L14.1235 47.8038C14.047 47.8367 13.9594 47.8586 13.8829 47.8586Z" fill="url(#paint24_linear_4334_352)"/>
<path d="M27.7116 61.3562C27.635 61.3562 27.5584 61.3452 27.4819 61.3123C27.1755 61.1917 27.0224 60.8408 27.1536 60.5338L46.321 13.0696C46.4413 12.7626 46.7914 12.6091 47.0978 12.7407C47.4041 12.8613 47.5573 13.2121 47.426 13.5191L28.2586 60.9724C28.1602 61.2027 27.9413 61.3452 27.7007 61.3452L27.7116 61.3562Z" fill="url(#paint25_linear_4334_352)"/>
<path d="M13.3577 27.0927C13.1279 27.0927 12.9201 26.9611 12.8107 26.7418C12.6685 26.4458 12.8107 26.084 13.0951 25.9414L21.4207 22.0382C21.7161 21.8956 22.0771 22.0272 22.2193 22.3232C22.3615 22.6193 22.2193 22.9811 21.9349 23.1236L13.6093 27.0269C13.5327 27.0598 13.4452 27.0817 13.3577 27.0817V27.0927Z" fill="url(#paint26_linear_4334_352)"/>
<path d="M16.8915 37.6292C16.6399 37.6292 16.4102 37.4757 16.3227 37.2235L12.7233 26.8952C12.6139 26.5772 12.778 26.2373 13.0953 26.1277C13.4125 26.018 13.7517 26.1825 13.8611 26.5005L17.4604 36.8288C17.5698 37.1468 17.4057 37.4866 17.0885 37.5963C17.0228 37.6182 16.9572 37.6292 16.8915 37.6292Z" fill="url(#paint27_linear_4334_352)"/>
<path d="M36.1031 15.9643C36.0484 15.9643 35.9827 15.9643 35.928 15.9424L26.1693 12.9053C25.852 12.8066 25.677 12.4667 25.7755 12.1487C25.8739 11.8308 26.2021 11.6553 26.5303 11.754L36.2891 14.7911C36.6063 14.8898 36.7814 15.2297 36.6829 15.5477C36.6063 15.8108 36.3656 15.9753 36.114 15.9753L36.1031 15.9643Z" fill="url(#paint28_linear_4334_352)"/>
<path d="M22.143 23.1016C22.0664 23.1016 21.9898 23.0907 21.9242 23.0578C21.6179 22.9372 21.4647 22.5863 21.585 22.2793L25.6111 12.1155C25.7314 11.8085 26.0815 11.655 26.3878 11.7756C26.6942 11.8962 26.8473 12.247 26.727 12.554L22.701 22.7179C22.6025 22.9591 22.3837 23.1016 22.143 23.1016Z" fill="url(#paint29_linear_4334_352)"/>
<path d="M13.424 47.8477C13.3584 47.8477 13.2928 47.8477 13.2271 47.8148C12.9098 47.7051 12.7457 47.3652 12.8551 47.0473L16.3232 36.8286C16.4326 36.5106 16.7718 36.3462 17.089 36.4558C17.4063 36.5654 17.5704 36.9053 17.461 37.2233L13.9929 47.442C13.9054 47.6942 13.6757 47.8477 13.424 47.8477Z" fill="url(#paint30_linear_4334_352)"/>
<path d="M22.8864 52.0693C22.8098 52.0693 22.7223 52.0583 22.6457 52.0145L13.3027 47.9796C12.9964 47.8481 12.8541 47.4972 12.9854 47.1902C13.1167 46.8832 13.4668 46.7407 13.7731 46.8722L23.1161 50.9071C23.4224 51.0387 23.5647 51.3895 23.4334 51.6965C23.3349 51.9268 23.1161 52.0583 22.8864 52.0583V52.0693Z" fill="url(#paint31_linear_4334_352)"/>
<path d="M27.1642 61.9917C26.9345 61.9917 26.7157 61.8601 26.6172 61.6299L22.3396 51.7072C22.2083 51.4002 22.3396 51.0494 22.6568 50.9178C22.9632 50.7862 23.3132 50.9178 23.4445 51.2358L27.7222 61.1584C27.8535 61.4654 27.7222 61.8163 27.4049 61.9478C27.3283 61.9807 27.2517 61.9917 27.1642 61.9917Z" fill="url(#paint32_linear_4334_352)"/>
<path d="M27.3722 62.0572C27.1096 62.0572 26.858 61.8818 26.7923 61.6077C26.7048 61.2897 26.9017 60.9608 27.219 60.8731L37.0652 58.2855C37.3934 58.1978 37.7107 58.3952 37.7982 58.7131C37.8858 59.0311 37.6888 59.36 37.3716 59.4477L27.5253 62.0353C27.5253 62.0353 27.4269 62.0572 27.3722 62.0572Z" fill="url(#paint33_linear_4334_352)"/>
<path d="M47.1857 61.3673C47.1857 61.3673 47.0982 61.3673 47.0654 61.3563L37.1863 59.2731C36.8581 59.2073 36.6502 58.8893 36.7268 58.5604C36.7925 58.2315 37.1097 58.0232 37.4379 58.0999L47.317 60.1831C47.6452 60.2489 47.8531 60.5669 47.7765 60.8958C47.7218 61.1809 47.4702 61.3782 47.1857 61.3782V61.3673Z" fill="url(#paint34_linear_4334_352)"/>
<path d="M47.327 61.2461C47.2286 61.2461 47.1192 61.2242 47.0316 61.1693C46.7472 61.0049 46.6487 60.6321 46.8128 60.347L51.9001 51.5098C52.0642 51.2248 52.4361 51.1261 52.7206 51.2905C53.005 51.455 53.1035 51.8278 52.9394 52.1129L47.8522 60.9501C47.7428 61.1474 47.5349 61.2461 47.338 61.2461H47.327Z" fill="url(#paint35_linear_4334_352)"/>
<path d="M52.9074 52.0688C52.7104 52.0688 52.5245 51.9701 52.4041 51.7947C52.2181 51.5206 52.2947 51.1478 52.5792 50.9614L61.3642 45.2052C61.6377 45.0297 62.0097 45.0955 62.1957 45.3806C62.3816 45.6547 62.3051 46.0275 62.0206 46.2139L53.2356 51.9701C53.1371 52.0359 53.0168 52.0688 52.9074 52.0688Z" fill="url(#paint36_linear_4334_352)"/>
<path d="M61.7033 46.1047C61.4188 46.1047 61.1563 45.8963 61.1125 45.6003L59.5152 35.9189C59.4605 35.5899 59.6793 35.2829 60.0075 35.2281C60.3248 35.1733 60.6421 35.3926 60.6968 35.7215L62.294 45.4029C62.3487 45.7319 62.1299 46.0389 61.8017 46.0937C61.7689 46.0937 61.7361 46.0937 61.7033 46.0937V46.1047Z" fill="url(#paint37_linear_4334_352)"/>
<path d="M60.1171 36.4232C60.1171 36.4232 60.0405 36.4232 60.0077 36.4232C59.6795 36.3684 59.4607 36.0504 59.5263 35.7215L61.2549 26.1826C61.3096 25.8536 61.6268 25.6453 61.955 25.7001C62.2832 25.755 62.502 26.0729 62.4364 26.4019L60.7078 35.9408C60.6531 36.2258 60.4015 36.4341 60.1171 36.4341V36.4232Z" fill="url(#paint38_linear_4334_352)"/>
<path d="M61.7029 26.7313C61.5826 26.7313 61.4732 26.6984 61.3638 26.6326L52.5678 20.679C52.2943 20.4926 52.2177 20.1198 52.4037 19.8457C52.5897 19.5716 52.9616 19.4949 53.2352 19.6813L62.0311 25.6348C62.3046 25.8212 62.3812 26.194 62.1952 26.4681C62.0749 26.6436 61.8889 26.7313 61.7029 26.7313Z" fill="url(#paint39_linear_4334_352)"/>
<path d="M52.9075 20.7772C52.7325 20.7772 52.5465 20.7004 52.4262 20.5469L46.7591 13.1241C46.5622 12.861 46.6059 12.4772 46.8685 12.2799C47.1311 12.0825 47.503 12.1264 47.7109 12.3895L53.378 19.8123C53.5749 20.0755 53.5311 20.4592 53.2686 20.6566C53.1592 20.7443 53.0279 20.7772 52.9075 20.7772Z" fill="url(#paint40_linear_4334_352)"/>
<path d="M36.1032 15.9637C35.8297 15.9637 35.589 15.7773 35.5233 15.5032C35.4467 15.1743 35.6437 14.8563 35.9719 14.7796L46.9122 12.1591C47.2404 12.0824 47.5576 12.2797 47.6342 12.6086C47.7108 12.9376 47.5139 13.2555 47.1857 13.3323L36.2454 15.9527C36.2454 15.9527 36.1469 15.9747 36.1032 15.9747V15.9637Z" fill="url(#paint41_linear_4334_352)"/>
</g>
<defs>
<linearGradient id="paint0_linear_4334_352" x1="31.9375" y1="0.322265" x2="37.1224" y2="1.73102" gradientUnits="userSpaceOnUse">
<stop stop-color="#8258C8"/>
<stop offset="0.315" stop-color="#6766C8"/>
<stop offset="1" stop-color="#2C84C8"/>
</linearGradient>
<linearGradient id="paint1_linear_4334_352" x1="35.7594" y1="0.336913" x2="40.9895" y2="1.56669" gradientUnits="userSpaceOnUse">
<stop stop-color="#8258C8"/>
<stop offset="0.315" stop-color="#6766C8"/>
<stop offset="1" stop-color="#2C84C8"/>
</linearGradient>
<linearGradient id="paint2_linear_4334_352" x1="35.6472" y1="-1.3323e-05" x2="39.0356" y2="0.0275586" gradientUnits="userSpaceOnUse">
<stop stop-color="#8258C8"/>
<stop offset="0.315" stop-color="#6766C8"/>
<stop offset="1" stop-color="#2C84C8"/>
</linearGradient>
<linearGradient id="paint3_linear_4334_352" x1="1.26798" y1="35.6553" x2="2.29857" y2="45.1124" gradientUnits="userSpaceOnUse">
<stop stop-color="#8258C8"/>
<stop offset="0.315" stop-color="#6766C8"/>
<stop offset="1" stop-color="#2C84C8"/>
</linearGradient>
<linearGradient id="paint4_linear_4334_352" x1="0.731275" y1="35.1074" x2="3.45474" y2="50.4478" gradientUnits="userSpaceOnUse">
<stop stop-color="#8258C8"/>
<stop offset="0.315" stop-color="#6766C8"/>
<stop offset="1" stop-color="#2C84C8"/>
</linearGradient>
<linearGradient id="paint5_linear_4334_352" x1="11.1464" y1="11.666" x2="71.6657" y2="25.2436" gradientUnits="userSpaceOnUse">
<stop stop-color="#8258C8"/>
<stop offset="0.315" stop-color="#6766C8"/>
<stop offset="1" stop-color="#2C84C8"/>
</linearGradient>
<linearGradient id="paint6_linear_4334_352" x1="10.598" y1="11.1328" x2="72.3786" y2="24.9793" gradientUnits="userSpaceOnUse">
<stop stop-color="#8258C8"/>
<stop offset="0.315" stop-color="#6766C8"/>
<stop offset="1" stop-color="#2C84C8"/>
</linearGradient>
<linearGradient id="paint7_linear_4334_352" x1="11.8008" y1="9.94335" x2="71.2484" y2="22.0923" gradientUnits="userSpaceOnUse">
<stop stop-color="#8258C8"/>
<stop offset="0.315" stop-color="#6766C8"/>
<stop offset="1" stop-color="#2C84C8"/>
</linearGradient>
<linearGradient id="paint8_linear_4334_352" x1="13.2815" y1="60.2227" x2="14.9546" y2="60.3096" gradientUnits="userSpaceOnUse">
<stop stop-color="#8258C8"/>
<stop offset="0.315" stop-color="#6766C8"/>
<stop offset="1" stop-color="#2C84C8"/>
</linearGradient>
<linearGradient id="paint9_linear_4334_352" x1="8.12412" y1="59.3389" x2="12.1889" y2="63.3337" gradientUnits="userSpaceOnUse">
<stop stop-color="#8258C8"/>
<stop offset="0.315" stop-color="#6766C8"/>
<stop offset="1" stop-color="#2C84C8"/>
</linearGradient>
<linearGradient id="paint10_linear_4334_352" x1="37.8141" y1="68.459" x2="42.7572" y2="69.4604" gradientUnits="userSpaceOnUse">
<stop stop-color="#8258C8"/>
<stop offset="0.315" stop-color="#6766C8"/>
<stop offset="1" stop-color="#2C84C8"/>
</linearGradient>
<linearGradient id="paint11_linear_4334_352" x1="33.4355" y1="67.9658" x2="39.3531" y2="69.2605" gradientUnits="userSpaceOnUse">
<stop stop-color="#8258C8"/>
<stop offset="0.315" stop-color="#6766C8"/>
<stop offset="1" stop-color="#2C84C8"/>
</linearGradient>
<linearGradient id="paint12_linear_4334_352" x1="60.618" y1="57.584" x2="64.0578" y2="60.9922" gradientUnits="userSpaceOnUse">
<stop stop-color="#8258C8"/>
<stop offset="0.315" stop-color="#6766C8"/>
<stop offset="1" stop-color="#2C84C8"/>
</linearGradient>
<linearGradient id="paint13_linear_4334_352" x1="59.9206" y1="57.584" x2="61.3951" y2="57.6414" gradientUnits="userSpaceOnUse">
<stop stop-color="#8258C8"/>
<stop offset="0.315" stop-color="#6766C8"/>
<stop offset="1" stop-color="#2C84C8"/>
</linearGradient>
<linearGradient id="paint14_linear_4334_352" x1="0.71394" y1="36.9111" x2="5.18859" y2="37.559" gradientUnits="userSpaceOnUse">
<stop stop-color="#8258C8"/>
<stop offset="0.315" stop-color="#6766C8"/>
<stop offset="1" stop-color="#2C84C8"/>
</linearGradient>
<linearGradient id="paint15_linear_4334_352" x1="0.0451121" y1="32.5186" x2="5.7837" y2="33.6874" gradientUnits="userSpaceOnUse">
<stop stop-color="#8258C8"/>
<stop offset="0.315" stop-color="#6766C8"/>
<stop offset="1" stop-color="#2C84C8"/>
</linearGradient>
<linearGradient id="paint16_linear_4334_352" x1="7.64534" y1="13.6289" x2="11.116" y2="17.0367" gradientUnits="userSpaceOnUse">
<stop stop-color="#8258C8"/>
<stop offset="0.315" stop-color="#6766C8"/>
<stop offset="1" stop-color="#2C84C8"/>
</linearGradient>
<linearGradient id="paint17_linear_4334_352" x1="12.6804" y1="8.19043" x2="14.1681" y2="8.24891" gradientUnits="userSpaceOnUse">
<stop stop-color="#8258C8"/>
<stop offset="0.315" stop-color="#6766C8"/>
<stop offset="1" stop-color="#2C84C8"/>
</linearGradient>
<linearGradient id="paint18_linear_4334_352" x1="59.0459" y1="7.17871" x2="60.5589" y2="7.24908" gradientUnits="userSpaceOnUse">
<stop stop-color="#8258C8"/>
<stop offset="0.315" stop-color="#6766C8"/>
<stop offset="1" stop-color="#2C84C8"/>
</linearGradient>
<linearGradient id="paint19_linear_4334_352" x1="59.1496" y1="12.2471" x2="62.8613" y2="16.2382" gradientUnits="userSpaceOnUse">
<stop stop-color="#8258C8"/>
<stop offset="0.315" stop-color="#6766C8"/>
<stop offset="1" stop-color="#2C84C8"/>
</linearGradient>
<linearGradient id="paint20_linear_4334_352" x1="69.3933" y1="31.2178" x2="74.444" y2="32.2953" gradientUnits="userSpaceOnUse">
<stop stop-color="#8258C8"/>
<stop offset="0.315" stop-color="#6766C8"/>
<stop offset="1" stop-color="#2C84C8"/>
</linearGradient>
<linearGradient id="paint21_linear_4334_352" x1="68.9187" y1="34.8145" x2="74.7124" y2="36.022" gradientUnits="userSpaceOnUse">
<stop stop-color="#8258C8"/>
<stop offset="0.315" stop-color="#6766C8"/>
<stop offset="1" stop-color="#2C84C8"/>
</linearGradient>
<linearGradient id="paint22_linear_4334_352" x1="13.9783" y1="26.4707" x2="60.3283" y2="50.4282" gradientUnits="userSpaceOnUse">
<stop stop-color="#8258C8"/>
<stop offset="0.315" stop-color="#6766C8"/>
<stop offset="1" stop-color="#2C84C8"/>
</linearGradient>
<linearGradient id="paint23_linear_4334_352" x1="26.0895" y1="12.3603" x2="51.9013" y2="14.8089" gradientUnits="userSpaceOnUse">
<stop stop-color="#8258C8"/>
<stop offset="0.315" stop-color="#6766C8"/>
<stop offset="1" stop-color="#2C84C8"/>
</linearGradient>
<linearGradient id="paint24_linear_4334_352" x1="13.7314" y1="26.1973" x2="61.1933" y2="48.4263" gradientUnits="userSpaceOnUse">
<stop stop-color="#8258C8"/>
<stop offset="0.315" stop-color="#6766C8"/>
<stop offset="1" stop-color="#2C84C8"/>
</linearGradient>
<linearGradient id="paint25_linear_4334_352" x1="27.2957" y1="12.6934" x2="51.6511" y2="14.8469" gradientUnits="userSpaceOnUse">
<stop stop-color="#8258C8"/>
<stop offset="0.315" stop-color="#6766C8"/>
<stop offset="1" stop-color="#2C84C8"/>
</linearGradient>
<linearGradient id="paint26_linear_4334_352" x1="12.8434" y1="21.9805" x2="22.779" y2="25.8896" gradientUnits="userSpaceOnUse">
<stop stop-color="#8258C8"/>
<stop offset="0.315" stop-color="#6766C8"/>
<stop offset="1" stop-color="#2C84C8"/>
</linearGradient>
<linearGradient id="paint27_linear_4334_352" x1="12.7341" y1="26.0937" x2="18.4804" y2="26.5994" gradientUnits="userSpaceOnUse">
<stop stop-color="#8258C8"/>
<stop offset="0.315" stop-color="#6766C8"/>
<stop offset="1" stop-color="#2C84C8"/>
</linearGradient>
<linearGradient id="paint28_linear_4334_352" x1="25.8499" y1="11.7266" x2="36.0351" y2="17.2786" gradientUnits="userSpaceOnUse">
<stop stop-color="#8258C8"/>
<stop offset="0.315" stop-color="#6766C8"/>
<stop offset="1" stop-color="#2C84C8"/>
</linearGradient>
<linearGradient id="paint29_linear_4334_352" x1="21.5925" y1="11.7344" x2="27.8298" y2="12.34" gradientUnits="userSpaceOnUse">
<stop stop-color="#8258C8"/>
<stop offset="0.315" stop-color="#6766C8"/>
<stop offset="1" stop-color="#2C84C8"/>
</linearGradient>
<linearGradient id="paint30_linear_4334_352" x1="12.8647" y1="36.4219" x2="18.4555" y2="36.905" gradientUnits="userSpaceOnUse">
<stop stop-color="#8258C8"/>
<stop offset="0.315" stop-color="#6766C8"/>
<stop offset="1" stop-color="#2C84C8"/>
</linearGradient>
<linearGradient id="paint31_linear_4334_352" x1="13.0345" y1="46.8232" x2="23.802" y2="51.3962" gradientUnits="userSpaceOnUse">
<stop stop-color="#8258C8"/>
<stop offset="0.315" stop-color="#6766C8"/>
<stop offset="1" stop-color="#2C84C8"/>
</linearGradient>
<linearGradient id="paint32_linear_4334_352" x1="22.34" y1="50.8672" x2="28.8779" y2="51.5481" gradientUnits="userSpaceOnUse">
<stop stop-color="#8258C8"/>
<stop offset="0.315" stop-color="#6766C8"/>
<stop offset="1" stop-color="#2C84C8"/>
</linearGradient>
<linearGradient id="paint33_linear_4334_352" x1="26.8742" y1="58.2646" x2="36.5311" y2="64.2077" gradientUnits="userSpaceOnUse">
<stop stop-color="#8258C8"/>
<stop offset="0.315" stop-color="#6766C8"/>
<stop offset="1" stop-color="#2C84C8"/>
</linearGradient>
<linearGradient id="paint34_linear_4334_352" x1="36.8139" y1="58.084" x2="45.6873" y2="64.3903" gradientUnits="userSpaceOnUse">
<stop stop-color="#8258C8"/>
<stop offset="0.315" stop-color="#6766C8"/>
<stop offset="1" stop-color="#2C84C8"/>
</linearGradient>
<linearGradient id="paint35_linear_4334_352" x1="46.7918" y1="51.2109" x2="54.2366" y2="52.1961" gradientUnits="userSpaceOnUse">
<stop stop-color="#8258C8"/>
<stop offset="0.315" stop-color="#6766C8"/>
<stop offset="1" stop-color="#2C84C8"/>
</linearGradient>
<linearGradient id="paint36_linear_4334_352" x1="52.3956" y1="45.1084" x2="63.4256" y2="48.4545" gradientUnits="userSpaceOnUse">
<stop stop-color="#8258C8"/>
<stop offset="0.315" stop-color="#6766C8"/>
<stop offset="1" stop-color="#2C84C8"/>
</linearGradient>
<linearGradient id="paint37_linear_4334_352" x1="59.5328" y1="35.2197" x2="62.8921" y2="35.402" gradientUnits="userSpaceOnUse">
<stop stop-color="#8258C8"/>
<stop offset="0.315" stop-color="#6766C8"/>
<stop offset="1" stop-color="#2C84C8"/>
</linearGradient>
<linearGradient id="paint38_linear_4334_352" x1="59.5419" y1="25.6914" x2="63.0655" y2="25.8947" gradientUnits="userSpaceOnUse">
<stop stop-color="#8258C8"/>
<stop offset="0.315" stop-color="#6766C8"/>
<stop offset="1" stop-color="#2C84C8"/>
</linearGradient>
<linearGradient id="paint39_linear_4334_352" x1="52.3947" y1="19.5791" x2="63.4751" y2="22.8507" gradientUnits="userSpaceOnUse">
<stop stop-color="#8258C8"/>
<stop offset="0.315" stop-color="#6766C8"/>
<stop offset="1" stop-color="#2C84C8"/>
</linearGradient>
<linearGradient id="paint40_linear_4334_352" x1="46.7005" y1="12.1572" x2="54.7448" y2="13.5105" gradientUnits="userSpaceOnUse">
<stop stop-color="#8258C8"/>
<stop offset="0.315" stop-color="#6766C8"/>
<stop offset="1" stop-color="#2C84C8"/>
</linearGradient>
<linearGradient id="paint41_linear_4334_352" x1="35.6197" y1="12.1426" x2="45.7254" y2="18.9085" gradientUnits="userSpaceOnUse">
<stop stop-color="#8258C8"/>
<stop offset="0.315" stop-color="#6766C8"/>
<stop offset="1" stop-color="#2C84C8"/>
</linearGradient>
<clipPath id="clip0_4334_352">
<rect width="74" height="73" fill="white"/>
</clipPath>
</defs>
</svg>
