<svg width="69" height="71" viewBox="0 0 69 71" fill="none" xmlns="http://www.w3.org/2000/svg">
<g clip-path="url(#clip0_4336_469)">
<path d="M26.1099 15.3703C26.1099 15.3703 26.0299 15.3703 25.9799 15.3603L9.6599 11.4703C9.3699 11.4003 9.1799 11.1003 9.2499 10.8103C9.3199 10.5203 9.6099 10.3303 9.9099 10.4003L26.2299 14.2903C26.5199 14.3603 26.7099 14.6603 26.6399 14.9503C26.5799 15.2003 26.3499 15.3703 26.1099 15.3703Z" fill="#AC8DE0"/>
<path d="M42.0597 15.3701C41.8697 15.3701 41.6897 15.2701 41.5897 15.1001L33.1397 0.830085C32.9897 0.570085 33.0697 0.230085 33.3297 0.0800854C33.5897 -0.0699146 33.9297 0.0100854 34.0797 0.270085L42.5297 14.5401C42.6797 14.8001 42.5997 15.1401 42.3397 15.2901C42.2497 15.3401 42.1597 15.3701 42.0597 15.3701Z" fill="#AC8DE0"/>
<path d="M26.1097 15.3702C26.0197 15.3702 25.9397 15.3502 25.8497 15.3102C25.5797 15.1702 25.4797 14.8402 25.6197 14.5702L33.1197 0.290178C33.2597 0.0201784 33.5897 -0.0798216 33.8597 0.0601784C34.1297 0.200178 34.2297 0.530178 34.0897 0.800178L26.5897 15.0702C26.4897 15.2602 26.2997 15.3602 26.0997 15.3602L26.1097 15.3702Z" fill="#AC8DE0"/>
<path d="M42.0597 15.3697C41.8297 15.3697 41.6097 15.2197 41.5397 14.9897C41.4497 14.6997 41.6097 14.3897 41.8997 14.2997L58.6897 8.99966C58.9797 8.90966 59.2897 9.06966 59.3797 9.35966C59.4697 9.64966 59.3097 9.95966 59.0197 10.0497L42.2297 15.3497C42.1797 15.3697 42.1197 15.3797 42.0597 15.3797V15.3697Z" fill="#AC8DE0"/>
<path d="M35.3298 69.15C35.0598 69.15 34.8398 68.93 34.8298 68.65L33.2598 1.72996C33.2598 1.43996 33.4698 1.21996 33.7498 1.20996C34.0498 1.20996 34.2498 1.42996 34.2598 1.70996L35.8298 68.63C35.8298 68.92 35.6198 69.14 35.3398 69.15H35.3298Z" fill="#AC8DE0"/>
<path d="M1.24023 35.7702C0.970234 35.7702 0.750234 35.5502 0.740234 35.2802C0.740234 35.0002 0.960234 34.7802 1.23023 34.7702L67.8302 33.2402C68.1002 33.2402 68.3302 33.4502 68.3402 33.7302C68.3402 34.0102 68.1202 34.2302 67.8502 34.2402L1.25023 35.7702H1.24023Z" fill="#AC8DE0"/>
<path d="M58.6504 57.6497C58.5304 57.6497 58.4004 57.6097 58.3104 57.5097L10.1004 12.2197C10.0004 12.1197 9.94043 11.9897 9.94043 11.8597C9.94043 11.7397 9.98043 11.6097 10.0804 11.5197C10.2704 11.3197 10.5904 11.3097 10.7804 11.4997L58.9904 56.7897C59.0904 56.8897 59.1504 57.0197 59.1504 57.1497C59.1504 57.2697 59.1104 57.3997 59.0104 57.4897C58.9104 57.5897 58.7804 57.6497 58.6504 57.6497Z" fill="#AC8DE0"/>
<path d="M11.5498 58.7301C11.4198 58.7301 11.2998 58.6801 11.1998 58.5901C11.0998 58.4901 11.0498 58.3601 11.0498 58.2301C11.0498 58.1001 11.0998 57.9801 11.1898 57.8801L57.6398 10.4901C57.8298 10.2901 58.1498 10.2901 58.3498 10.4801C58.4498 10.5801 58.4998 10.7101 58.4998 10.8401C58.4998 10.9701 58.4498 11.0901 58.3598 11.1901L11.9198 58.5801C11.8198 58.6801 11.6898 58.7301 11.5598 58.7301H11.5498Z" fill="#AC8DE0"/>
<path d="M15.1404 27.33C14.9104 27.33 14.7004 27.19 14.6204 26.96L9.2604 11.1C9.1604 10.81 9.3204 10.5 9.6004 10.4C9.8904 10.3 10.2004 10.46 10.3004 10.74L15.6504 26.6C15.7504 26.89 15.5904 27.2 15.3104 27.3C15.2504 27.32 15.1904 27.33 15.1304 27.33H15.1404Z" fill="#AC8DE0"/>
<path d="M0.549646 36.1701C0.359646 36.1701 0.179646 36.0801 0.0796462 35.9101C-0.0803538 35.6501 0.00964624 35.3101 0.269646 35.1601L14.8696 26.3301C15.1296 26.1801 15.4696 26.2601 15.6196 26.5201C15.7796 26.7801 15.6896 27.1201 15.4296 27.2701L0.829646 36.0901C0.739646 36.1401 0.639646 36.1701 0.549646 36.1701Z" fill="#AC8DE0"/>
<path d="M15.5096 43.6703C15.4296 43.6703 15.3396 43.6503 15.2596 43.6103L0.299637 36.1103C0.0296374 35.9703 -0.0803626 35.6403 0.0496374 35.3703C0.189637 35.1003 0.519637 34.9903 0.789637 35.1303L15.7496 42.6303C16.0196 42.7703 16.1296 43.1003 15.9996 43.3703C15.8996 43.5603 15.7096 43.6703 15.5096 43.6703Z" fill="#AC8DE0"/>
<path d="M11.1604 59.2298C11.1104 59.2298 11.0604 59.2298 11.0104 59.2098C10.7204 59.1298 10.5504 58.8198 10.6404 58.5298L15.0504 43.4098C15.1404 43.1198 15.4404 42.9498 15.7304 43.0398C16.0204 43.1198 16.1904 43.4298 16.1004 43.7198L11.6904 58.8398C11.6204 59.0798 11.4004 59.2398 11.1604 59.2398V59.2298Z" fill="#AC8DE0"/>
<path d="M11.17 59.2303C10.94 59.2303 10.72 59.0803 10.65 58.8503C10.56 58.5603 10.7201 58.2503 11.0101 58.1603L26.9501 53.1803C27.2401 53.0903 27.55 53.2503 27.64 53.5403C27.73 53.8303 27.5701 54.1403 27.2801 54.2303L11.3401 59.2103C11.2901 59.2303 11.2301 59.2303 11.1801 59.2303H11.17Z" fill="#AC8DE0"/>
<path d="M59.0898 58.1501C59.0898 58.1501 58.9998 58.1501 58.9598 58.1401L42.9298 54.2401C42.6398 54.1701 42.4598 53.8701 42.5298 53.5801C42.5998 53.2901 42.8998 53.1101 43.1898 53.1801L59.2198 57.0801C59.5198 57.1501 59.6898 57.4501 59.6198 57.7401C59.5598 57.9901 59.3298 58.1601 59.0898 58.1601V58.1501Z" fill="#AC8DE0"/>
<path d="M59.0905 58.1302C58.8505 58.1302 58.6305 57.9702 58.5605 57.7302L54.4905 42.8802C54.4105 42.5902 54.5805 42.2902 54.8705 42.2102C55.1705 42.1302 55.4605 42.3002 55.5405 42.5902L59.6105 57.4402C59.6905 57.7302 59.5205 58.0302 59.2305 58.1102C59.1805 58.1202 59.1305 58.1302 59.0905 58.1302Z" fill="#AC8DE0"/>
<path d="M35.0798 70.2003C34.8798 70.2003 34.6898 70.0903 34.5898 69.9003L26.6198 53.9503C26.4898 53.6803 26.5898 53.3503 26.8698 53.2103C27.1398 53.0703 27.4698 53.1903 27.6098 53.4603L35.5798 69.4103C35.7198 69.6803 35.6098 70.0103 35.3298 70.1503C35.2498 70.1903 35.1698 70.2103 35.0798 70.2103V70.2003Z" fill="#AC8DE0"/>
<path d="M35.0799 70.2C34.9999 70.2 34.9099 70.18 34.8299 70.14C34.5599 70 34.4499 69.67 34.5799 69.4L42.5499 53.45C42.6899 53.18 43.0199 53.07 43.2899 53.2C43.5599 53.34 43.6699 53.67 43.5399 53.94L35.5699 69.89C35.4699 70.08 35.2799 70.19 35.0799 70.19V70.2Z" fill="#AC8DE0"/>
<path d="M55.0199 26.3401C55.0199 26.3401 54.9399 26.3401 54.8899 26.3301C54.5899 26.2601 54.4099 25.9701 54.4799 25.6701L58.3099 9.40014C58.3799 9.11014 58.6699 8.92014 58.9699 8.99014C59.2699 9.06014 59.4499 9.36014 59.3799 9.65014L55.5499 25.9201C55.4899 26.1701 55.2699 26.3401 55.0199 26.3401Z" fill="#AC8DE0"/>
<path d="M55.02 43.2802C54.85 43.2802 54.68 43.2002 54.57 43.0402C54.4 42.7902 54.46 42.4502 54.71 42.2802L67.67 33.3102C67.92 33.1402 68.26 33.2002 68.43 33.4502C68.6 33.7002 68.54 34.0402 68.29 34.2102L55.33 43.1802C55.24 43.2502 55.13 43.2802 55.02 43.2802Z" fill="#AC8DE0"/>
<path d="M67.9802 34.3097C67.8802 34.3097 67.7802 34.2797 67.6902 34.2297L54.7301 26.2597C54.4701 26.0997 54.3901 25.7597 54.5501 25.4997C54.7101 25.2397 55.0501 25.1597 55.3001 25.3197L68.2601 33.2897C68.5202 33.4497 68.6002 33.7897 68.4402 34.0497C68.3401 34.2197 68.1601 34.3097 67.9701 34.3097H67.9802Z" fill="#AC8DE0"/>
<path d="M35.0796 55.2403C23.2296 55.2403 13.5996 45.8303 13.5996 34.2603C13.5996 22.6903 23.2396 13.2803 35.0796 13.2803C46.9196 13.2803 56.5596 22.6903 56.5596 34.2603C56.5596 45.8303 46.9196 55.2403 35.0796 55.2403ZM35.0796 14.3703C23.8396 14.3703 14.6896 23.2903 14.6896 34.2603C14.6896 45.2303 23.8296 54.1503 35.0796 54.1503C46.3296 54.1503 55.4696 45.2303 55.4696 34.2603C55.4696 23.2903 46.3296 14.3703 35.0796 14.3703Z" fill="#AC8DE0"/>
</g>
<defs>
<clipPath id="clip0_4336_469">
<rect width="68.53" height="70.2" fill="white"/>
</clipPath>
</defs>
</svg>
